<?xml version="1.0" standalone="no"?>
 <!DOCTYPE svg PUBLIC "-//W3C//DTD SVG 1.1//EN" 
 "http://www.w3.org/Graphics/SVG/1.1/DTD/svg11.dtd"> 
<svg
  xmlns:svg="http://www.w3.org/2000/svg"
  xmlns="http://www.w3.org/2000/svg"
  xmlns:xlink="http://www.w3.org/1999/xlink"
  xmlns:inkscape="http://www.inkscape.org/namespaces/inkscape"
  version="1.1"
  width="297.0022mm" height="210.0072mm" viewBox="0.0000 0.0000 297.0022 210.0072">
<title>SVG Image created as projectarduino-F_Cu.svg date 2026-06-01T11:23:34 </title>
  <desc>Image generated by PCBNEW </desc>
<g style="fill:#000000; fill-opacity:1.0000;stroke:#000000; stroke-opacity:1.0000;
stroke-linecap:round; stroke-linejoin:round;"
 transform="translate(0 0) scale(1 1)">
<path style="fill:#000000; fill-opacity:1.0000; stroke:none;fill-rule:evenodd;"
d="M 135.3512,71.8950
135.3512,70.8907
135.6539,70.8907
135.8356,71.5758
136.0152,70.8907
136.3186,70.8907
136.3186,71.8950
136.1307,71.8950
136.1307,71.1044
135.9319,71.8950
135.7372,71.8950
135.5391,71.1044
135.5391,71.8950
Z" /> 
<path style="fill:#000000; fill-opacity:1.0000; stroke:none;fill-rule:evenodd;"
d="M 136.8876,71.1528
136.9496,71.1637
136.9929,71.1792
137.0323,71.2026
137.0612,71.2285
137.0813,71.2569
137.0938,71.2900
137.1032,71.3447
137.1070,71.4297
137.1050,71.6552
137.1077,71.7450
137.1142,71.7971
137.1269,71.8430
137.1487,71.8950
136.9588,71.8950
136.9403,71.8391
136.9335,71.8168
136.8818,71.8601
136.8283,71.8901
136.7707,71.9084
136.7087,71.9145
136.6530,71.9103
136.6059,71.8983
136.5660,71.8793
136.5322,71.8534
136.5039,71.8208
136.4840,71.7847
136.4718,71.7444
136.4676,71.6989
136.4693,71.6782
136.6595,71.6782
136.6629,71.7040
136.6727,71.7271
136.6896,71.7483
136.7112,71.7645
136.7363,71.7743
136.7661,71.7778
136.7996,71.7741
136.8324,71.7629
136.8651,71.7434
136.8943,71.7140
136.9109,71.6796
136.9161,71.6494
136.9184,71.5856
136.9184,71.5472
136.8016,71.5767
136.7290,71.5958
136.6971,71.6103
136.6757,71.6304
136.6636,71.6527
136.6595,71.6782
136.4693,71.6782
136.4710,71.6585
136.4808,71.6220
136.4970,71.5887
136.5191,71.5590
136.5463,71.5344
136.5793,71.5145
136.6386,71.4920
136.7319,71.4695
136.8558,71.4424
136.9184,71.4221
136.9184,71.4025
136.9148,71.3656
136.9054,71.3395
136.8911,71.3213
136.8711,71.3093
136.8384,71.3006
136.7879,71.2971
136.7404,71.3028
136.7080,71.3179
136.6835,71.3444
136.6616,71.3909
136.4874,71.3596
136.5130,71.2915
136.5467,71.2393
136.5885,71.2003
136.6249,71.1794
136.6710,71.1632
136.7291,71.1525
136.8016,71.1486
Z" /> 
<path style="fill:#000000; fill-opacity:1.0000; stroke:none;fill-rule:evenodd;"
d="M 137.6285,71.1681
137.6285,71.3205
137.4973,71.3205
137.4973,71.6157
137.5011,71.7202
137.5072,71.7336
137.5182,71.7447
137.5326,71.7518
137.5506,71.7543
137.5798,71.7505
137.6278,71.7359
137.6442,71.8857
137.5987,71.9014
137.5484,71.9112
137.4925,71.9145
137.4424,71.9100
137.3989,71.8970
137.3617,71.8760
137.3378,71.8515
137.3220,71.8204
137.3109,71.7761
137.3067,71.7338
137.3047,71.6396
137.3047,71.3205
137.2166,71.3205
137.2166,71.1681
137.3047,71.1681
137.3047,71.0274
137.4973,70.9141
137.4973,71.1681
Z" /> 
<path style="fill:#000000; fill-opacity:1.0000; stroke:none;fill-rule:evenodd;"
d="M 138.1178,71.1558
138.1854,71.1764
138.2436,71.2097
138.2939,71.2563
138.3250,71.2997
138.3502,71.3525
138.3689,71.4165
138.3805,71.4936
138.3835,71.5863
137.9025,71.5863
137.9092,71.6413
137.9250,71.6846
137.9490,71.7187
137.9811,71.7451
138.0175,71.7607
138.0596,71.7660
138.1019,71.7598
138.1355,71.7420
138.1614,71.7124
138.1820,71.6644
138.3732,71.6957
138.3429,71.7631
138.3041,71.8167
138.2567,71.8586
138.2011,71.8889
138.1356,71.9078
138.0576,71.9145
137.9817,71.9089
137.9175,71.8930
137.8630,71.8679
137.8167,71.8336
137.7775,71.7897
137.7471,71.7383
137.7247,71.6799
137.7107,71.6133
137.7058,71.5371
137.7108,71.4690
137.9060,71.4690
138.1929,71.4690
138.1865,71.4143
138.1718,71.3726
138.1498,71.3409
138.1202,71.3164
138.0874,71.3020
138.0501,71.2971
138.0103,71.3023
137.9761,71.3176
137.9463,71.3434
137.9243,71.3764
137.9106,71.4176
137.9060,71.4690
137.7108,71.4690
137.7124,71.4460
137.7310,71.3698
137.7604,71.3057
137.8001,71.2518
137.8506,71.2064
137.9063,71.1746
137.9684,71.1553
138.0385,71.1486
Z" /> 
<path style="fill:#000000; fill-opacity:1.0000; stroke:none;fill-rule:evenodd;"
d="M 138.9494,71.1557
139.0201,71.1762
139.0827,71.2096
139.1386,71.2566
139.1843,71.3137
139.2169,71.3772
139.2369,71.4486
139.2438,71.5295
139.2368,71.6111
139.2166,71.6831
139.1837,71.7474
139.1376,71.8052
139.0811,71.8530
139.0186,71.8868
138.9488,71.9074
138.8701,71.9145
138.8047,71.9095
138.7415,71.8944
138.6798,71.8690
138.6240,71.8337
138.5785,71.7895
138.5422,71.7355
138.5168,71.6751
138.5008,71.6043
138.4958,71.5316
138.6918,71.5316
138.6983,71.6031
138.7159,71.6580
138.7430,71.6998
138.7803,71.7326
138.8219,71.7517
138.8694,71.7582
138.9169,71.7517
138.9584,71.7326
138.9955,71.6998
139.0224,71.6580
139.0399,71.6027
139.0464,71.5302
139.0400,71.4596
139.0225,71.4052
138.9955,71.3633
138.9584,71.3306
138.9169,71.3114
138.8694,71.3049
138.8219,71.3114
138.7803,71.3306
138.7430,71.3633
138.7159,71.4052
138.6983,71.4600
138.6918,71.5316
138.4958,71.5316
138.4951,71.5212
138.5002,71.4579
138.5158,71.3958
138.5422,71.3342
138.5783,71.2783
138.6226,71.2326
138.6757,71.1962
138.7349,71.1700
138.7989,71.1540
138.8688,71.1486
Z" /> 
<path style="fill:#000000; fill-opacity:1.0000; stroke:none;fill-rule:evenodd;"
d="M 139.7900,71.8950
139.7900,70.9024
139.9922,70.9024
139.9922,71.7270
140.4950,71.7270
140.4950,71.8950
Z" /> 
<path style="fill:#000000; fill-opacity:1.0000; stroke:none;fill-rule:evenodd;"
d="M 140.9940,71.1558
141.0616,71.1764
141.1198,71.2097
141.1701,71.2563
141.2012,71.2997
141.2264,71.3525
141.2452,71.4165
141.2567,71.4936
141.2597,71.5863
140.7787,71.5863
140.7854,71.6413
140.8012,71.6846
140.8252,71.7187
140.8573,71.7451
140.8937,71.7607
140.9359,71.7660
140.9781,71.7598
141.0117,71.7420
141.0376,71.7124
141.0582,71.6644
141.2494,71.6957
141.2191,71.7631
141.1803,71.8167
141.1329,71.8586
141.0774,71.8889
141.0118,71.9078
140.9338,71.9145
140.8579,71.9089
140.7937,71.8930
140.7393,71.8679
140.6929,71.8336
140.6538,71.7897
140.6233,71.7383
140.6009,71.6799
140.5869,71.6133
140.5820,71.5371
140.5870,71.4690
140.7822,71.4690
141.0691,71.4690
141.0627,71.4143
141.0480,71.3726
141.0260,71.3409
140.9964,71.3164
140.9636,71.3020
140.9263,71.2971
140.8865,71.3023
140.8523,71.3176
140.8225,71.3434
140.8005,71.3764
140.7868,71.4176
140.7822,71.4690
140.5870,71.4690
140.5886,71.4460
140.6072,71.3698
140.6366,71.3057
140.6763,71.2518
140.7268,71.2064
140.7825,71.1746
140.8446,71.1553
140.9147,71.1486
Z" /> 
<path style="fill:#000000; fill-opacity:1.0000; stroke:none;fill-rule:evenodd;"
d="M 142.0810,71.8950
141.9027,71.8950
141.9027,71.7884
141.8707,71.8272
141.8358,71.8584
141.7979,71.8826
141.7364,71.9068
141.6760,71.9145
141.6159,71.9082
141.5611,71.8896
141.5100,71.8583
141.4618,71.8128
141.4245,71.7598
141.3967,71.6964
141.3790,71.6202
141.3727,71.5288
141.3734,71.5179
141.5687,71.5179
141.5732,71.5972
141.5847,71.6523
141.6009,71.6894
141.6273,71.7238
141.6572,71.7473
141.6912,71.7612
141.7306,71.7660
141.7722,71.7598
141.8092,71.7412
141.8433,71.7086
141.8676,71.6676
141.8838,71.6118
141.8898,71.5368
141.8837,71.4524
141.8677,71.3934
141.8447,71.3532
141.8114,71.3217
141.7735,71.3034
141.7293,71.2971
141.6863,71.3032
141.6486,71.3213
141.6148,71.3525
141.5907,71.3921
141.5747,71.4458
141.5687,71.5179
141.3734,71.5179
141.3790,71.4348
141.3965,71.3582
141.4235,71.2960
141.4594,71.2456
141.5061,71.2029
141.5574,71.1730
141.6144,71.1548
141.6787,71.1486
141.7370,71.1548
141.7907,71.1732
141.8412,71.2043
141.8891,71.2497
141.8891,70.8907
142.0810,70.8907
Z" /> 
<path style="fill:#000000; fill-opacity:1.0000; stroke:none;fill-rule:evenodd;"
d="M 142.6265,71.1558
142.6941,71.1764
142.7523,71.2097
142.8027,71.2563
142.8337,71.2997
142.8589,71.3525
142.8777,71.4165
142.8892,71.4936
142.8922,71.5863
142.4113,71.5863
142.4179,71.6413
142.4337,71.6846
142.4577,71.7187
142.4898,71.7451
142.5262,71.7607
142.5684,71.7660
142.6106,71.7598
142.6442,71.7420
142.6701,71.7124
142.6907,71.6644
142.8819,71.6957
142.8516,71.7631
142.8128,71.8167
142.7654,71.8586
142.7099,71.8889
142.6443,71.9078
142.5663,71.9145
142.4904,71.9089
142.4262,71.8930
142.3718,71.8679
142.3255,71.8336
142.2863,71.7897
142.2558,71.7383
142.2335,71.6799
142.2194,71.6133
142.2145,71.5371
142.2195,71.4690
142.4147,71.4690
142.7016,71.4690
142.6952,71.4143
142.6805,71.3726
142.6586,71.3409
142.6290,71.3164
142.5961,71.3020
142.5588,71.2971
142.5190,71.3023
142.4849,71.3176
142.4550,71.3434
142.4330,71.3764
142.4193,71.4176
142.4147,71.4690
142.2195,71.4690
142.2211,71.4460
142.2397,71.3698
142.2691,71.3057
142.3088,71.2518
142.3593,71.2064
142.4151,71.1746
142.4771,71.1553
142.5472,71.1486
Z" /> 
<path style="fill:#000000; fill-opacity:1.0000; stroke:none;fill-rule:evenodd;"
d="M 142.9806,71.6879
143.1732,71.6644
143.1847,71.6997
143.2014,71.7274
143.2231,71.7489
143.2497,71.7642
143.2840,71.7741
143.3283,71.7778
143.3774,71.7741
143.4137,71.7643
143.4403,71.7498
143.4592,71.7270
143.4656,71.6975
143.4621,71.6767
143.4519,71.6604
143.4325,71.6486
143.3877,71.6346
143.2300,71.5944
143.1393,71.5632
143.0933,71.5393
143.0552,71.5062
143.0288,71.4684
143.0128,71.4249
143.0072,71.3740
143.0119,71.3280
143.0257,71.2866
143.0486,71.2487
143.0816,71.2136
143.1201,71.1872
143.1696,71.1669
143.2328,71.1535
143.3126,71.1486
143.3894,71.1524
143.4501,71.1628
143.4974,71.1783
143.5339,71.1980
143.5764,71.2353
143.6096,71.2833
143.6336,71.3440
143.4527,71.3792
143.4354,71.3384
143.4086,71.3095
143.3857,71.2968
143.3555,71.2885
143.3160,71.2854
143.2654,71.2884
143.2305,71.2961
143.2074,71.3070
143.1908,71.3249
143.1855,71.3468
143.1901,71.3659
143.2046,71.3825
143.2465,71.4009
143.3840,71.4377
143.4858,71.4665
143.5544,71.4957
143.5981,71.5244
143.6310,71.5625
143.6511,71.6097
143.6582,71.6687
143.6531,71.7171
143.6379,71.7614
143.6123,71.8028
143.5749,71.8421
143.5317,71.8719
143.4779,71.8945
143.4110,71.9092
143.3283,71.9145
143.2533,71.9102
143.1904,71.8979
143.1377,71.8789
143.0936,71.8535
143.0540,71.8202
143.0223,71.7818
142.9979,71.7380
Z" /> 
<path style="fill:#000000; fill-opacity:1.0000; stroke:none;fill-rule:evenodd;"
d="M 143.8116,71.1681
143.9885,71.1681
143.9885,71.2672
144.0404,71.2134
144.0947,71.1771
144.1522,71.1558
144.2146,71.1486
144.2603,71.1520
144.3003,71.1618
144.3355,71.1776
144.3670,71.1997
144.3950,71.2287
144.4195,71.2653
144.4705,71.2130
144.5227,71.1776
144.5799,71.1559
144.6409,71.1486
144.6933,71.1525
144.7380,71.1636
144.7761,71.1813
144.8097,71.2062
144.8371,71.2378
144.8588,71.2771
144.8727,71.3312
144.8786,71.4283
144.8786,71.8950
144.6866,71.8950
144.6866,71.4783
144.6835,71.4045
144.6762,71.3612
144.6668,71.3383
144.6462,71.3156
144.6195,71.3020
144.5848,71.2971
144.5461,71.3032
144.5090,71.3218
144.4790,71.3516
144.4578,71.3942
144.4468,71.4489
144.4421,71.5449
144.4421,71.8950
144.2501,71.8950
144.2501,71.4955
144.2467,71.3983
144.2398,71.3582
144.2263,71.3306
144.2080,71.3122
144.1840,71.3012
144.1497,71.2971
144.1073,71.3032
144.0697,71.3212
144.0396,71.3500
144.0188,71.3905
144.0081,71.4432
144.0035,71.5408
144.0035,71.8950
143.8116,71.8950
Z" /> 
<path style="fill:#000000; fill-opacity:1.0000; stroke:none;fill-rule:evenodd;"
d="M 145.4401,71.1528
145.5020,71.1637
145.5453,71.1792
145.5847,71.2026
145.6136,71.2285
145.6337,71.2569
145.6462,71.2900
145.6556,71.3447
145.6594,71.4297
145.6574,71.6552
145.6601,71.7450
145.6666,71.7971
145.6793,71.8430
145.7011,71.8950
145.5112,71.8950
145.4928,71.8391
145.4859,71.8168
145.4342,71.8601
145.3807,71.8901
145.3231,71.9084
145.2611,71.9145
145.2054,71.9103
145.1583,71.8983
145.1184,71.8793
145.0846,71.8534
145.0563,71.8208
145.0364,71.7847
145.0242,71.7444
145.0200,71.6989
145.0217,71.6782
145.2119,71.6782
145.2153,71.7040
145.2251,71.7271
145.2420,71.7483
145.2636,71.7645
145.2887,71.7743
145.3185,71.7778
145.3520,71.7741
145.3848,71.7629
145.4175,71.7434
145.4467,71.7140
145.4633,71.6796
145.4685,71.6494
145.4708,71.5856
145.4708,71.5472
145.3540,71.5767
145.2814,71.5958
145.2495,71.6103
145.2281,71.6304
145.2160,71.6527
145.2119,71.6782
145.0217,71.6782
145.0234,71.6585
145.0332,71.6220
145.0494,71.5887
145.0715,71.5590
145.0987,71.5344
145.1317,71.5145
145.1910,71.4920
145.2844,71.4695
145.4082,71.4424
145.4708,71.4221
145.4708,71.4025
145.4672,71.3656
145.4578,71.3395
145.4435,71.3213
145.4235,71.3093
145.3908,71.3006
145.3403,71.2971
145.2928,71.3028
145.2604,71.3179
145.2359,71.3444
145.2140,71.3909
145.0398,71.3596
145.0654,71.2915
145.0991,71.2393
145.1409,71.2003
145.1773,71.1794
145.2235,71.1632
145.2815,71.1525
145.3540,71.1486
Z" /> 
<path style="fill:#000000; fill-opacity:1.0000; stroke:none;fill-rule:evenodd;"
d="M 133.6158,72.5707
133.8173,72.5707
133.8173,73.2079
133.8144,73.2918
133.8066,73.3545
133.7955,73.4002
133.7705,73.4550
133.7353,73.5018
133.6889,73.5414
133.6350,73.5698
133.5682,73.5880
133.4853,73.5945
133.4116,73.5887
133.3505,73.5723
133.2996,73.5464
133.2572,73.5111
133.2239,73.4674
133.1989,73.4135
133.1827,73.3474
133.1766,73.2663
133.3672,73.2467
133.3724,73.3046
133.3813,73.3435
133.3925,73.3686
133.4181,73.3986
133.4506,73.4163
133.4922,73.4226
133.5354,73.4176
133.5662,73.4044
133.5878,73.3838
133.6013,73.3555
133.6116,73.3051
133.6158,73.2223
Z" /> 
<path style="fill:#000000; fill-opacity:1.0000; stroke:none;fill-rule:evenodd;"
d="M 134.4003,72.8328
134.4622,72.8437
134.5055,72.8592
134.5449,72.8826
134.5738,72.9085
134.5940,72.9369
134.6065,72.9700
134.6158,73.0247
134.6196,73.1097
134.6176,73.3352
134.6203,73.4250
134.6268,73.4771
134.6396,73.5230
134.6613,73.5750
134.4714,73.5750
134.4530,73.5191
134.4461,73.4968
134.3944,73.5401
134.3409,73.5701
134.2833,73.5884
134.2214,73.5945
134.1656,73.5903
134.1186,73.5783
134.0787,73.5593
134.0448,73.5334
134.0165,73.5008
133.9966,73.4647
133.9844,73.4244
133.9802,73.3789
133.9820,73.3582
134.1722,73.3582
134.1755,73.3840
134.1853,73.4071
134.2022,73.4283
134.2238,73.4445
134.2489,73.4543
134.2787,73.4578
134.3122,73.4541
134.3450,73.4429
134.3777,73.4234
134.4069,73.3940
134.4235,73.3596
134.4287,73.3294
134.4311,73.2656
134.4311,73.2272
134.3142,73.2567
134.2416,73.2758
134.2097,73.2903
134.1884,73.3104
134.1762,73.3327
134.1722,73.3582
133.9820,73.3582
133.9836,73.3385
133.9934,73.3020
134.0096,73.2687
134.0317,73.2390
134.0590,73.2144
134.0919,73.1945
134.1512,73.1720
134.2446,73.1495
134.3684,73.1224
134.4311,73.1021
134.4311,73.0825
134.4275,73.0456
134.4180,73.0195
134.4037,73.0013
134.3837,72.9893
134.3511,72.9806
134.3006,72.9771
134.2531,72.9828
134.2206,72.9979
134.1961,73.0244
134.1742,73.0709
134.0000,73.0396
134.0256,72.9715
134.0594,72.9193
134.1011,72.8803
134.1375,72.8594
134.1837,72.8432
134.2418,72.8325
134.3142,72.8286
Z" /> 
<path style="fill:#000000; fill-opacity:1.0000; stroke:none;fill-rule:evenodd;"
d="M 135.4410,73.0553
135.2518,73.0904
135.2421,73.0545
135.2275,73.0267
135.2084,73.0056
135.1844,72.9901
135.1556,72.9805
135.1206,72.9771
135.0751,72.9830
135.0376,72.9998
135.0062,73.0278
134.9844,73.0643
134.9693,73.1186
134.9635,73.1972
134.9695,73.2849
134.9849,73.3446
135.0069,73.3838
135.0391,73.4140
135.0773,73.4320
135.1234,73.4382
135.1586,73.4345
135.1880,73.4239
135.2128,73.4065
135.2321,73.3830
135.2488,73.3479
135.2620,73.2975
135.4506,73.3288
135.4314,73.3935
135.4060,73.4471
135.3749,73.4914
135.3379,73.5274
135.2948,73.5557
135.2442,73.5766
135.1847,73.5898
135.1145,73.5945
135.0363,73.5877
134.9692,73.5683
134.9111,73.5369
134.8607,73.4931
134.8208,73.4400
134.7914,73.3769
134.7727,73.3018
134.7661,73.2122
134.7728,73.1216
134.7915,73.0459
134.8211,72.9827
134.8610,72.9297
134.9116,72.8862
134.9701,72.8549
135.0382,72.8354
135.1179,72.8286
135.1848,72.8326
135.2412,72.8438
135.2887,72.8613
135.3286,72.8846
135.3745,72.9268
135.4120,72.9827
Z" /> 
<path style="fill:#000000; fill-opacity:1.0000; stroke:none;fill-rule:evenodd;"
d="M 135.9033,72.8324
135.9448,72.8433
135.9813,72.8609
136.0302,72.8996
136.0752,72.9554
136.0752,72.8481
136.2521,72.8481
136.2521,73.8525
136.0602,73.8525
136.0602,73.4893
136.0182,73.5327
135.9666,73.5662
135.9086,73.5874
135.8457,73.5945
135.7859,73.5885
135.7329,73.5711
135.6853,73.5421
135.6421,73.5007
135.6024,73.4437
135.5730,73.3765
135.5545,73.2971
135.5486,73.2144
135.7439,73.2144
135.7500,73.2955
135.7659,73.3525
135.7890,73.3916
135.8221,73.4223
135.8587,73.4400
135.9004,73.4460
135.9418,73.4396
135.9800,73.4199
136.0164,73.3850
136.0426,73.3414
136.0599,73.2823
136.0663,73.2031
136.0604,73.1279
136.0445,73.0728
136.0209,73.0329
135.9875,73.0015
135.9501,72.9833
135.9072,72.9771
135.8634,72.9834
135.8251,73.0020
135.7907,73.0340
135.7666,73.0748
135.7502,73.1330
135.7439,73.2144
135.5486,73.2144
135.5479,73.2033
135.5541,73.1148
135.5717,73.0409
135.5992,72.9792
135.6363,72.9276
135.6839,72.8838
135.7357,72.8533
135.7925,72.8349
135.8560,72.8286
Z" /> 
<path style="fill:#000000; fill-opacity:1.0000; stroke:none;fill-rule:evenodd;"
d="M 136.9185,73.5750
136.9185,73.4664
136.8895,73.5024
136.8549,73.5333
136.8143,73.5595
136.7702,73.5791
136.7249,73.5907
136.6780,73.5945
136.6301,73.5908
136.5866,73.5800
136.5468,73.5622
136.5113,73.5375
136.4836,73.5075
136.4628,73.4715
136.4493,73.4316
136.4402,73.3788
136.4368,73.3100
136.4368,72.8481
136.6288,72.8481
136.6288,73.1827
136.6324,73.3220
136.6394,73.3709
136.6544,73.4021
136.6780,73.4258
136.7088,73.4407
136.7490,73.4460
136.7959,73.4392
136.8372,73.4190
136.8703,73.3882
136.8905,73.3518
136.9000,73.2975
136.9048,73.1553
136.9048,72.8481
137.0968,72.8481
137.0968,73.5750
Z" /> 
<path style="fill:#000000; fill-opacity:1.0000; stroke:none;fill-rule:evenodd;"
d="M 137.6518,72.8358
137.7194,72.8564
137.7776,72.8897
137.8279,72.9363
137.8590,72.9797
137.8841,73.0325
137.9029,73.0965
137.9145,73.1736
137.9174,73.2663
137.4365,73.2663
137.4432,73.3213
137.4590,73.3646
137.4830,73.3987
137.5151,73.4251
137.5515,73.4407
137.5936,73.4460
137.6359,73.4398
137.6695,73.4220
137.6954,73.3924
137.7159,73.3444
137.9072,73.3757
137.8768,73.4431
137.8381,73.4967
137.7907,73.5386
137.7351,73.5689
137.6695,73.5878
137.5916,73.5945
137.5157,73.5889
137.4515,73.5730
137.3970,73.5479
137.3507,73.5136
137.3115,73.4697
137.2811,73.4183
137.2587,73.3599
137.2447,73.2933
137.2398,73.2171
137.2447,73.1490
137.4399,73.1490
137.7269,73.1490
137.7205,73.0943
137.7058,73.0526
137.6838,73.0209
137.6542,72.9964
137.6214,72.9820
137.5841,72.9771
137.5443,72.9823
137.5101,72.9976
137.4802,73.0234
137.4583,73.0564
137.4446,73.0976
137.4399,73.1490
137.2447,73.1490
137.2464,73.1260
137.2650,73.0498
137.2943,72.9857
137.3341,72.9318
137.3846,72.8864
137.4403,72.8546
137.5024,72.8353
137.5724,72.8286
Z" /> 
<path style="fill:#000000; fill-opacity:1.0000; stroke:none;fill-rule:evenodd;"
d="M 138.0735,73.5750
138.0735,72.5707
138.2654,72.5707
138.2654,73.5750
Z" /> 
<path style="fill:#000000; fill-opacity:1.0000; stroke:none;fill-rule:evenodd;"
d="M 138.4623,72.7465
138.4623,72.5707
138.6543,72.5707
138.6543,72.7465
Z" /> 
<path style="fill:#000000; fill-opacity:1.0000; stroke:none;fill-rule:evenodd;"
d="M 138.4623,73.5750
138.4623,72.8481
138.6543,72.8481
138.6543,73.5750
Z" /> 
<path style="fill:#000000; fill-opacity:1.0000; stroke:none;fill-rule:evenodd;"
d="M 139.5111,73.5750
139.3191,73.5750
139.3191,73.2030
139.3150,73.0951
139.3068,73.0502
139.2904,73.0191
139.2668,72.9963
139.2369,72.9821
139.2002,72.9771
139.1527,72.9840
139.1107,73.0046
139.0773,73.0365
139.0564,73.0773
139.0463,73.1322
139.0417,73.2448
139.0417,73.5750
138.8498,73.5750
138.8498,72.8481
139.0281,72.8481
139.0281,72.9547
139.0696,72.9078
139.1136,72.8728
139.1607,72.8484
139.2116,72.8336
139.2672,72.8286
139.3287,72.8345
139.3833,72.8516
139.4307,72.8788
139.4629,72.9104
139.4857,72.9484
139.5004,72.9915
139.5080,73.0418
139.5111,73.1214
Z" /> 
<path style="fill:#000000; fill-opacity:1.0000; stroke:none;fill-rule:evenodd;"
d="M 140.0620,72.8358
140.1296,72.8564
140.1878,72.8897
140.2381,72.9363
140.2692,72.9797
140.2943,73.0325
140.3131,73.0965
140.3247,73.1736
140.3276,73.2663
139.8467,73.2663
139.8534,73.3213
139.8691,73.3646
139.8932,73.3987
139.9253,73.4251
139.9617,73.4407
140.0038,73.4460
140.0460,73.4398
140.0797,73.4220
140.1056,73.3924
140.1261,73.3444
140.3174,73.3757
140.2870,73.4431
140.2482,73.4967
140.2009,73.5386
140.1453,73.5689
140.0797,73.5878
140.0017,73.5945
139.9259,73.5889
139.8617,73.5730
139.8072,73.5479
139.7609,73.5136
139.7217,73.4697
139.6913,73.4183
139.6689,73.3599
139.6549,73.2933
139.6500,73.2171
139.6549,73.1490
139.8501,73.1490
140.1371,73.1490
140.1307,73.0943
140.1160,73.0526
140.0940,73.0209
140.0644,72.9964
140.0316,72.9820
139.9943,72.9771
139.9544,72.9823
139.9203,72.9976
139.8904,73.0234
139.8684,73.0564
139.8547,73.0976
139.8501,73.1490
139.6549,73.1490
139.6566,73.1260
139.6752,73.0498
139.7045,72.9857
139.7443,72.9318
139.7948,72.8864
139.8505,72.8546
139.9126,72.8353
139.9826,72.8286
Z" /> 
<path style="fill:#000000; fill-opacity:1.0000; stroke:none;fill-rule:evenodd;"
d="M 140.8711,73.5750
140.8711,72.5707
141.1737,72.5707
141.3555,73.2558
141.5351,72.5707
141.8385,72.5707
141.8385,73.5750
141.6506,73.5750
141.6506,72.7844
141.4518,73.5750
141.2571,73.5750
141.0590,72.7844
141.0590,73.5750
Z" /> 
<path style="fill:#000000; fill-opacity:1.0000; stroke:none;fill-rule:evenodd;"
d="M 142.4075,72.8328
142.4695,72.8437
142.5127,72.8592
142.5522,72.8826
142.5811,72.9085
142.6012,72.9369
142.6137,72.9700
142.6231,73.0247
142.6269,73.1097
142.6249,73.3352
142.6276,73.4250
142.6341,73.4771
142.6468,73.5230
142.6686,73.5750
142.4787,73.5750
142.4602,73.5191
142.4534,73.4968
142.4017,73.5401
142.3482,73.5701
142.2906,73.5884
142.2286,73.5945
142.1729,73.5903
142.1258,73.5783
142.0859,73.5593
142.0520,73.5334
142.0238,73.5008
142.0038,73.4647
141.9917,73.4244
141.9875,73.3789
141.9892,73.3582
142.1794,73.3582
142.1827,73.3840
142.1926,73.4071
142.2095,73.4283
142.2310,73.4445
142.2562,73.4543
142.2860,73.4578
142.3195,73.4541
142.3523,73.4429
142.3850,73.4234
142.4142,73.3940
142.4308,73.3596
142.4359,73.3294
142.4383,73.2656
142.4383,73.2272
142.3215,73.2567
142.2489,73.2758
142.2170,73.2903
142.1956,73.3104
142.1835,73.3327
142.1794,73.3582
141.9892,73.3582
141.9909,73.3385
142.0007,73.3020
142.0169,73.2687
142.0390,73.2390
142.0662,73.2144
142.0992,73.1945
142.1584,73.1720
142.2518,73.1495
142.3757,73.1224
142.4383,73.1021
142.4383,73.0825
142.4347,73.0456
142.4253,73.0195
142.4110,73.0013
142.3909,72.9893
142.3583,72.9806
142.3078,72.9771
142.2603,72.9828
142.2279,72.9979
142.2033,73.0244
142.1815,73.0709
142.0073,73.0396
142.0329,72.9715
142.0666,72.9193
142.1083,72.8803
142.1447,72.8594
142.1909,72.8432
142.2490,72.8325
142.3215,72.8286
Z" /> 
<path style="fill:#000000; fill-opacity:1.0000; stroke:none;fill-rule:evenodd;"
d="M 142.7249,72.8481
142.9291,72.8481
143.1026,73.3655
143.2720,72.8481
143.4708,72.8481
143.2146,73.5481
143.1689,73.6768
143.1426,73.7360
143.1207,73.7737
143.0958,73.8044
143.0681,73.8280
143.0360,73.8460
142.9950,73.8604
142.9501,73.8689
142.8970,73.8720
142.8421,73.8691
142.7884,73.8605
142.7713,73.7106
142.8154,73.7175
142.8525,73.7196
142.8954,73.7147
142.9275,73.7012
142.9516,73.6799
142.9793,73.6363
143.0008,73.5789
Z" /> 
<path style="fill:#000000; fill-opacity:1.0000; stroke:none;fill-rule:evenodd;"
d="M 143.9629,72.8328
144.0248,72.8437
144.0681,72.8592
144.1075,72.8826
144.1364,72.9085
144.1566,72.9369
144.1691,72.9700
144.1784,73.0247
144.1822,73.1097
144.1802,73.3352
144.1829,73.4250
144.1894,73.4771
144.2022,73.5230
144.2239,73.5750
144.0340,73.5750
144.0156,73.5191
144.0087,73.4968
143.9570,73.5401
143.9035,73.5701
143.8459,73.5884
143.7840,73.5945
143.7282,73.5903
143.6811,73.5783
143.6413,73.5593
143.6074,73.5334
143.5791,73.5008
143.5592,73.4647
143.5470,73.4244
143.5428,73.3789
143.5446,73.3582
143.7348,73.3582
143.7381,73.3840
143.7479,73.4071
143.7648,73.4283
143.7864,73.4445
143.8115,73.4543
143.8413,73.4578
143.8748,73.4541
143.9076,73.4429
143.9403,73.4234
143.9695,73.3940
143.9861,73.3596
143.9913,73.3294
143.9937,73.2656
143.9937,73.2272
143.8768,73.2567
143.8042,73.2758
143.7723,73.2903
143.7510,73.3104
143.7388,73.3327
143.7348,73.3582
143.5446,73.3582
143.5462,73.3385
143.5560,73.3020
143.5722,73.2687
143.5943,73.2390
143.6216,73.2144
143.6545,73.1945
143.7138,73.1720
143.8072,73.1495
143.9310,73.1224
143.9937,73.1021
143.9937,73.0825
143.9901,73.0456
143.9806,73.0195
143.9663,73.0013
143.9463,72.9893
143.9137,72.9806
143.8632,72.9771
143.8157,72.9828
143.7832,72.9979
143.7587,73.0244
143.7368,73.0709
143.5626,73.0396
143.5882,72.9715
143.6220,72.9193
143.6637,72.8803
143.7001,72.8594
143.7463,72.8432
143.8044,72.8325
143.8768,72.8286
Z" /> 
<path style="fill:#000000; fill-opacity:1.0000; stroke:none;fill-rule:evenodd;"
d="M 145.0309,73.5750
144.8390,73.5750
144.8390,73.2030
144.8349,73.0951
144.8266,73.0502
144.8103,73.0191
144.7867,72.9963
144.7568,72.9821
144.7201,72.9771
144.6726,72.9840
144.6306,73.0046
144.5972,73.0365
144.5763,73.0773
144.5662,73.1322
144.5616,73.2448
144.5616,73.5750
144.3697,73.5750
144.3697,72.8481
144.5480,72.8481
144.5480,72.9547
144.5894,72.9078
144.6335,72.8728
144.6806,72.8484
144.7315,72.8336
144.7871,72.8286
144.8486,72.8345
144.9031,72.8516
144.9506,72.8788
144.9828,72.9104
145.0056,72.9484
145.0203,72.9915
145.0279,73.0418
145.0309,73.1214
Z" /> 
<path style="fill:#000000; fill-opacity:1.0000; stroke:none;fill-rule:evenodd;"
d="M 145.8584,73.0553
145.6692,73.0904
145.6596,73.0545
145.6450,73.0267
145.6258,73.0056
145.6018,72.9901
145.5730,72.9805
145.5381,72.9771
145.4926,72.9830
145.4551,72.9998
145.4236,73.0278
145.4019,73.0643
145.3868,73.1186
145.3809,73.1972
145.3870,73.2849
145.4024,73.3446
145.4243,73.3838
145.4565,73.4140
145.4947,73.4320
145.5408,73.4382
145.5760,73.4345
145.6054,73.4239
145.6303,73.4065
145.6496,73.3830
145.6663,73.3479
145.6795,73.2975
145.8680,73.3288
145.8489,73.3935
145.8235,73.4471
145.7923,73.4914
145.7553,73.5274
145.7123,73.5557
145.6617,73.5766
145.6021,73.5898
145.5320,73.5945
145.4537,73.5877
145.3866,73.5683
145.3286,73.5369
145.2781,73.4931
145.2382,73.4400
145.2088,73.3769
145.1902,73.3018
145.1835,73.2122
145.1902,73.1216
145.2090,73.0459
145.2385,72.9827
145.2785,72.9297
145.3291,72.8862
145.3876,72.8549
145.4556,72.8354
145.5353,72.8286
145.6023,72.8326
145.6587,72.8438
145.7061,72.8613
145.7461,72.8846
145.7919,72.9268
145.8294,72.9827
Z" /> 
<path style="fill:#000000; fill-opacity:1.0000; stroke:none;fill-rule:evenodd;"
d="M 146.3595,72.8358
146.4271,72.8564
146.4853,72.8897
146.5357,72.9363
146.5667,72.9797
146.5919,73.0325
146.6107,73.0965
146.6222,73.1736
146.6252,73.2663
146.1443,73.2663
146.1509,73.3213
146.1667,73.3646
146.1907,73.3987
146.2228,73.4251
146.2593,73.4407
146.3014,73.4460
146.3436,73.4398
146.3772,73.4220
146.4031,73.3924
146.4237,73.3444
146.6149,73.3757
146.5846,73.4431
146.5458,73.4967
146.4984,73.5386
146.4429,73.5689
146.3773,73.5878
146.2993,73.5945
146.2234,73.5889
146.1592,73.5730
146.1048,73.5479
146.0585,73.5136
146.0193,73.4697
145.9888,73.4183
145.9665,73.3599
145.9524,73.2933
145.9475,73.2171
145.9525,73.1490
146.1477,73.1490
146.4346,73.1490
146.4282,73.0943
146.4135,73.0526
146.3916,73.0209
146.3620,72.9964
146.3291,72.9820
146.2919,72.9771
146.2520,72.9823
146.2179,72.9976
146.1880,73.0234
146.1660,73.0564
146.1523,73.0976
146.1477,73.1490
145.9525,73.1490
145.9542,73.1260
145.9728,73.0498
146.0021,72.9857
146.0418,72.9318
146.0923,72.8864
146.1481,72.8546
146.2101,72.8353
146.2802,72.8286
Z" /> 
<path style="fill:#000000; fill-opacity:1.0000; stroke:none;fill-rule:evenodd;"
d="M 146.7813,73.5750
146.7813,72.5707
146.9732,72.5707
146.9732,73.5750
Z" /> 
<path style="fill:#000000; fill-opacity:1.0000; stroke:none;fill-rule:evenodd;"
d="M 147.5396,72.8328
147.6015,72.8437
147.6448,72.8592
147.6842,72.8826
147.7131,72.9085
147.7333,72.9369
147.7458,72.9700
147.7551,73.0247
147.7589,73.1097
147.7569,73.3352
147.7596,73.4250
147.7661,73.4771
147.7789,73.5230
147.8006,73.5750
147.6107,73.5750
147.5923,73.5191
147.5854,73.4968
147.5337,73.5401
147.4802,73.5701
147.4226,73.5884
147.3607,73.5945
147.3049,73.5903
147.2578,73.5783
147.2180,73.5593
147.1841,73.5334
147.1558,73.5008
147.1359,73.4647
147.1237,73.4244
147.1195,73.3789
147.1213,73.3582
147.3114,73.3582
147.3148,73.3840
147.3246,73.4071
147.3415,73.4283
147.3631,73.4445
147.3882,73.4543
147.4180,73.4578
147.4515,73.4541
147.4843,73.4429
147.5170,73.4234
147.5462,73.3940
147.5628,73.3596
147.5680,73.3294
147.5703,73.2656
147.5703,73.2272
147.4535,73.2567
147.3809,73.2758
147.3490,73.2903
147.3277,73.3104
147.3155,73.3327
147.3114,73.3582
147.1213,73.3582
147.1229,73.3385
147.1327,73.3020
147.1489,73.2687
147.1710,73.2390
147.1983,73.2144
147.2312,73.1945
147.2905,73.1720
147.3839,73.1495
147.5077,73.1224
147.5703,73.1021
147.5703,73.0825
147.5668,73.0456
147.5573,73.0195
147.5430,73.0013
147.5230,72.9893
147.4904,72.9806
147.4399,72.9771
147.3923,72.9828
147.3599,72.9979
147.3354,73.0244
147.3135,73.0709
147.1393,73.0396
147.1649,72.9715
147.1986,72.9193
147.2404,72.8803
147.2768,72.8594
147.3230,72.8432
147.3811,72.8325
147.4535,72.8286
Z" /> 
<path style="fill:#000000; fill-opacity:1.0000; stroke:none;fill-rule:evenodd;"
d="M 136.7567,75.2550
136.7567,74.2507
136.9589,74.2507
136.9589,74.6943
137.3674,74.2507
137.6393,74.2507
137.2622,74.6411
137.6598,75.2550
137.3982,75.2550
137.1229,74.7844
136.9589,74.9523
136.9589,75.2550
Z" /> 
<path style="fill:#000000; fill-opacity:1.0000; stroke:none;fill-rule:evenodd;"
d="M 138.1323,74.5128
138.1942,74.5237
138.2375,74.5392
138.2769,74.5626
138.3058,74.5885
138.3260,74.6169
138.3385,74.6500
138.3479,74.7047
138.3516,74.7897
138.3496,75.0152
138.3524,75.1050
138.3588,75.1571
138.3716,75.2030
138.3933,75.2550
138.2034,75.2550
138.1850,75.1991
138.1782,75.1768
138.1265,75.2201
138.0730,75.2501
138.0154,75.2684
137.9534,75.2745
137.8976,75.2703
137.8506,75.2583
137.8107,75.2393
137.7768,75.2134
137.7486,75.1808
137.7286,75.1447
137.7165,75.1044
137.7123,75.0589
137.7140,75.0382
137.9042,75.0382
137.9075,75.0640
137.9174,75.0871
137.9342,75.1083
137.9558,75.1245
137.9810,75.1343
138.0107,75.1378
138.0443,75.1341
138.0771,75.1229
138.1098,75.1034
138.1390,75.0740
138.1556,75.0396
138.1607,75.0094
138.1631,74.9456
138.1631,74.9072
138.0463,74.9367
137.9737,74.9558
137.9417,74.9703
137.9204,74.9904
137.9083,75.0127
137.9042,75.0382
137.7140,75.0382
137.7156,75.0185
137.7255,74.9820
137.7416,74.9487
137.7638,74.9190
137.7910,74.8944
137.8240,74.8745
137.8832,74.8520
137.9766,74.8295
138.1005,74.8024
138.1631,74.7821
138.1631,74.7625
138.1595,74.7256
138.1500,74.6995
138.1357,74.6813
138.1157,74.6693
138.0831,74.6606
138.0326,74.6571
137.9851,74.6628
137.9527,74.6779
137.9281,74.7044
137.9063,74.7509
137.7321,74.7196
137.7576,74.6515
137.7914,74.5993
137.8331,74.5603
137.8695,74.5394
137.9157,74.5232
137.9738,74.5125
138.0463,74.5086
Z" /> 
<path style="fill:#000000; fill-opacity:1.0000; stroke:none;fill-rule:evenodd;"
d="M 138.7242,75.2550
138.5323,75.2550
138.5323,74.5281
138.7106,74.5281
138.7106,74.6313
138.7577,74.5660
138.7929,74.5334
138.8316,74.5149
138.8758,74.5086
138.9186,74.5125
138.9605,74.5244
139.0022,74.5447
138.9428,74.7119
138.8941,74.6877
138.8526,74.6805
138.8149,74.6863
138.7843,74.7030
138.7609,74.7315
138.7403,74.7839
138.7294,74.8582
138.7242,75.0291
Z" /> 
<path style="fill:#000000; fill-opacity:1.0000; stroke:none;fill-rule:evenodd;"
d="M 139.4406,74.5158
139.5082,74.5364
139.5664,74.5697
139.6168,74.6163
139.6478,74.6597
139.6730,74.7125
139.6918,74.7765
139.7033,74.8536
139.7063,74.9463
139.2254,74.9463
139.2320,75.0013
139.2478,75.0446
139.2718,75.0787
139.3039,75.1051
139.3403,75.1207
139.3825,75.1260
139.4247,75.1198
139.4583,75.1020
139.4842,75.0724
139.5048,75.0244
139.6960,75.0557
139.6657,75.1231
139.6269,75.1767
139.5795,75.2186
139.5240,75.2489
139.4584,75.2678
139.3804,75.2745
139.3045,75.2689
139.2403,75.2530
139.1859,75.2279
139.1396,75.1936
139.1004,75.1497
139.0699,75.0983
139.0476,75.0399
139.0335,74.9733
139.0286,74.8971
139.0336,74.8290
139.2288,74.8290
139.5157,74.8290
139.5093,74.7743
139.4946,74.7326
139.4727,74.7009
139.4431,74.6764
139.4102,74.6620
139.3729,74.6571
139.3331,74.6623
139.2989,74.6776
139.2691,74.7034
139.2471,74.7364
139.2334,74.7776
139.2288,74.8290
139.0336,74.8290
139.0352,74.8060
139.0538,74.7298
139.0832,74.6657
139.1229,74.6118
139.1734,74.5664
139.2292,74.5346
139.2912,74.5153
139.3613,74.5086
Z" /> 
<path style="fill:#000000; fill-opacity:1.0000; stroke:none;fill-rule:evenodd;"
d="M 140.5222,75.2550
140.3303,75.2550
140.3303,74.8830
140.3262,74.7751
140.3179,74.7302
140.3016,74.6991
140.2780,74.6763
140.2481,74.6621
140.2114,74.6571
140.1639,74.6640
140.1219,74.6846
140.0885,74.7165
140.0676,74.7573
140.0575,74.8122
140.0529,74.9248
140.0529,75.2550
139.8609,75.2550
139.8609,74.5281
140.0392,74.5281
140.0392,74.6347
140.0807,74.5878
140.1248,74.5528
140.1719,74.5284
140.2227,74.5136
140.2783,74.5086
140.3398,74.5145
140.3944,74.5316
140.4419,74.5588
140.4741,74.5904
140.4968,74.6284
140.5116,74.6715
140.5191,74.7218
140.5222,74.8014
Z" /> 
<path style="fill:#000000; fill-opacity:1.0000; stroke:none;fill-rule:evenodd;"
d="M 141.1128,75.2550
141.1128,74.2624
141.3150,74.2624
141.3150,75.0870
141.8178,75.0870
141.8178,75.2550
Z" /> 
<path style="fill:#000000; fill-opacity:1.0000; stroke:none;fill-rule:evenodd;"
d="M 142.3168,74.5158
142.3844,74.5364
142.4426,74.5697
142.4930,74.6163
142.5240,74.6597
142.5492,74.7125
142.5680,74.7765
142.5795,74.8536
142.5825,74.9463
142.1016,74.9463
142.1082,75.0013
142.1240,75.0446
142.1480,75.0787
142.1801,75.1051
142.2165,75.1207
142.2587,75.1260
142.3009,75.1198
142.3345,75.1020
142.3604,75.0724
142.3810,75.0244
142.5722,75.0557
142.5419,75.1231
142.5031,75.1767
142.4557,75.2186
142.4002,75.2489
142.3346,75.2678
142.2566,75.2745
142.1807,75.2689
142.1165,75.2530
142.0621,75.2279
142.0158,75.1936
141.9766,75.1497
141.9461,75.0983
141.9238,75.0399
141.9097,74.9733
141.9048,74.8971
141.9098,74.8290
142.1050,74.8290
142.3919,74.8290
142.3855,74.7743
142.3708,74.7326
142.3489,74.7009
142.3193,74.6764
142.2864,74.6620
142.2491,74.6571
142.2093,74.6623
142.1752,74.6776
142.1453,74.7034
142.1233,74.7364
142.1096,74.7776
142.1050,74.8290
141.9098,74.8290
141.9114,74.8060
141.9301,74.7298
141.9594,74.6657
141.9991,74.6118
142.0496,74.5664
142.1054,74.5346
142.1674,74.5153
142.2375,74.5086
Z" /> 
<path style="fill:#000000; fill-opacity:1.0000; stroke:none;fill-rule:evenodd;"
d="M 143.1484,74.5157
143.2191,74.5362
143.2817,74.5696
143.3376,74.6166
143.3833,74.6737
143.4159,74.7372
143.4359,74.8086
143.4428,74.8895
143.4358,74.9711
143.4157,75.0431
143.3828,75.1074
143.3366,75.1652
143.2801,75.2130
143.2176,75.2468
143.1479,75.2674
143.0691,75.2745
143.0037,75.2695
142.9405,75.2544
142.8789,75.2290
142.8231,75.1937
142.7775,75.1495
142.7412,75.0955
142.7158,75.0351
142.6998,74.9643
142.6948,74.8916
142.8908,74.8916
142.8973,74.9631
142.9149,75.0180
142.9421,75.0598
142.9794,75.0926
143.0210,75.1117
143.0685,75.1182
143.1159,75.1117
143.1574,75.0926
143.1945,75.0598
143.2214,75.0180
143.2390,74.9627
143.2454,74.8902
143.2390,74.8196
143.2215,74.7652
143.1945,74.7233
143.1574,74.6906
143.1159,74.6714
143.0685,74.6649
143.0210,74.6714
142.9794,74.6906
142.9421,74.7233
142.9149,74.7652
142.8973,74.8200
142.8908,74.8916
142.6948,74.8916
142.6941,74.8812
142.6993,74.8179
142.7148,74.7558
142.7412,74.6942
142.7774,74.6383
142.8216,74.5926
142.8748,74.5562
142.9340,74.5300
142.9980,74.5140
143.0678,74.5086
Z" /> 
<path style="fill:#000000; fill-opacity:1.0000; stroke:none;fill-rule:evenodd;"
d="M 143.0930,74.4343
142.9714,74.4343
143.0657,74.2311
143.2809,74.2311
Z" /> 
<path style="fill:#000000; fill-opacity:1.0000; stroke:none;fill-rule:evenodd;"
d="M 144.2533,75.2550
144.0613,75.2550
144.0613,74.8830
144.0573,74.7751
144.0490,74.7302
144.0326,74.6991
144.0090,74.6763
143.9792,74.6621
143.9424,74.6571
143.8950,74.6640
143.8530,74.6846
143.8195,74.7165
143.7986,74.7573
143.7886,74.8122
143.7840,74.9248
143.7840,75.2550
143.5920,75.2550
143.5920,74.5281
143.7703,74.5281
143.7703,74.6347
143.8118,74.5878
143.8559,74.5528
143.9030,74.5284
143.9538,74.5136
144.0094,74.5086
144.0709,74.5145
144.1255,74.5316
144.1730,74.5588
144.2051,74.5904
144.2279,74.6284
144.2427,74.6715
144.2502,74.7218
144.2533,74.8014
Z" /> 
<path style="fill:#000000; fill-opacity:1.0000; stroke:none;fill-rule:evenodd;"
d="M 136.7977,76.9350
136.7977,76.0987
136.5005,76.0987
136.5005,75.9307
137.2964,75.9307
137.2964,76.0987
136.9999,76.0987
136.9999,76.9350
Z" /> 
<path style="fill:#000000; fill-opacity:1.0000; stroke:none;fill-rule:evenodd;"
d="M 137.6907,76.1928
137.7526,76.2037
137.7959,76.2192
137.8354,76.2426
137.8643,76.2685
137.8844,76.2969
137.8969,76.3300
137.9063,76.3847
137.9100,76.4697
137.9080,76.6952
137.9108,76.7850
137.9173,76.8371
137.9300,76.8830
137.9518,76.9350
137.7619,76.9350
137.7434,76.8791
137.7366,76.8568
137.6849,76.9001
137.6314,76.9301
137.5738,76.9484
137.5118,76.9545
137.4561,76.9503
137.4090,76.9383
137.3691,76.9193
137.3352,76.8934
137.3070,76.8608
137.2870,76.8247
137.2749,76.7844
137.2707,76.7389
137.2724,76.7182
137.4626,76.7182
137.4659,76.7440
137.4758,76.7671
137.4926,76.7883
137.5142,76.8045
137.5394,76.8143
137.5691,76.8178
137.6027,76.8141
137.6355,76.8029
137.6682,76.7834
137.6974,76.7540
137.7140,76.7196
137.7191,76.6894
137.7215,76.6256
137.7215,76.5872
137.6047,76.6167
137.5321,76.6358
137.5001,76.6503
137.4788,76.6704
137.4667,76.6927
137.4626,76.7182
137.2724,76.7182
137.2741,76.6985
137.2839,76.6620
137.3001,76.6287
137.3222,76.5990
137.3494,76.5744
137.3824,76.5545
137.4416,76.5320
137.5350,76.5095
137.6589,76.4824
137.7215,76.4621
137.7215,76.4425
137.7179,76.4056
137.7084,76.3795
137.6941,76.3613
137.6741,76.3493
137.6415,76.3406
137.5910,76.3371
137.5435,76.3428
137.5111,76.3579
137.4865,76.3844
137.4647,76.4309
137.2905,76.3996
137.3160,76.3315
137.3498,76.2793
137.3915,76.2403
137.4279,76.2194
137.4741,76.2032
137.5322,76.1925
137.6047,76.1886
Z" /> 
<path style="fill:#000000; fill-opacity:1.0000; stroke:none;fill-rule:evenodd;"
d="M 138.2826,76.2897
138.3306,76.2443
138.3810,76.2132
138.4348,76.1948
138.4931,76.1886
138.5573,76.1948
138.6144,76.2129
138.6657,76.2429
138.7123,76.2856
138.7484,76.3360
138.7755,76.3976
138.7928,76.4727
138.7991,76.5640
138.7927,76.6585
138.7750,76.7364
138.7474,76.8005
138.7106,76.8531
138.6628,76.8984
138.6118,76.9296
138.5565,76.9482
138.4957,76.9545
138.4551,76.9510
138.4144,76.9403
138.3731,76.9219
138.3351,76.8973
138.3005,76.8664
138.2690,76.8284
138.2690,76.9350
138.0907,76.9350
138.0907,76.5579
138.2813,76.5579
138.2861,76.6344
138.2987,76.6894
138.3168,76.7280
138.3449,76.7633
138.3759,76.7871
138.4103,76.8012
138.4493,76.8060
138.4891,76.8000
138.5247,76.7821
138.5576,76.7507
138.5807,76.7110
138.5964,76.6547
138.6024,76.5761
138.5962,76.4922
138.5803,76.4334
138.5572,76.3932
138.5240,76.3617
138.4861,76.3434
138.4418,76.3371
138.3983,76.3432
138.3606,76.3611
138.3270,76.3918
138.3032,76.4310
138.2873,76.4848
138.2813,76.5579
138.0907,76.5579
138.0907,75.9307
138.2826,75.9307
Z" /> 
<path style="fill:#000000; fill-opacity:1.0000; stroke:none;fill-rule:evenodd;"
d="M 139.3232,76.1928
139.3852,76.2037
139.4284,76.2192
139.4679,76.2426
139.4968,76.2685
139.5169,76.2969
139.5294,76.3300
139.5388,76.3847
139.5426,76.4697
139.5406,76.6952
139.5433,76.7850
139.5498,76.8371
139.5625,76.8830
139.5843,76.9350
139.3944,76.9350
139.3759,76.8791
139.3691,76.8568
139.3174,76.9001
139.2639,76.9301
139.2063,76.9484
139.1443,76.9545
139.0886,76.9503
139.0415,76.9383
139.0016,76.9193
138.9677,76.8934
138.9395,76.8608
138.9195,76.8247
138.9074,76.7844
138.9032,76.7389
138.9049,76.7182
139.0951,76.7182
139.0984,76.7440
139.1083,76.7671
139.1252,76.7883
139.1467,76.8045
139.1719,76.8143
139.2017,76.8178
139.2352,76.8141
139.2680,76.8029
139.3007,76.7834
139.3299,76.7540
139.3465,76.7196
139.3516,76.6894
139.3540,76.6256
139.3540,76.5872
139.2372,76.6167
139.1646,76.6358
139.1327,76.6503
139.1113,76.6704
139.0992,76.6927
139.0951,76.7182
138.9049,76.7182
138.9066,76.6985
138.9164,76.6620
138.9326,76.6287
138.9547,76.5990
138.9819,76.5744
139.0149,76.5545
139.0741,76.5320
139.1675,76.5095
139.2914,76.4824
139.3540,76.4621
139.3540,76.4425
139.3504,76.4056
139.3410,76.3795
139.3267,76.3613
139.3066,76.3493
139.2740,76.3406
139.2235,76.3371
139.1760,76.3428
139.1436,76.3579
139.1190,76.3844
139.0972,76.4309
138.9230,76.3996
138.9486,76.3315
138.9823,76.2793
139.0240,76.2403
139.0605,76.2194
139.1066,76.2032
139.1647,76.1925
139.2372,76.1886
Z" /> 
<path style="fill:#000000; fill-opacity:1.0000; stroke:none;fill-rule:evenodd;"
d="M 140.0641,76.2081
140.0641,76.3605
139.9329,76.3605
139.9329,76.6557
139.9367,76.7602
139.9427,76.7736
139.9538,76.7847
139.9682,76.7918
139.9862,76.7943
140.0153,76.7905
140.0634,76.7759
140.0798,76.9257
140.0343,76.9414
139.9840,76.9512
139.9281,76.9545
139.8780,76.9500
139.8345,76.9370
139.7973,76.9160
139.7734,76.8915
139.7576,76.8604
139.7464,76.8161
139.7423,76.7738
139.7403,76.6796
139.7403,76.3605
139.6522,76.3605
139.6522,76.2081
139.7403,76.2081
139.7403,76.0674
139.9329,75.9541
139.9329,76.2081
Z" /> 
<path style="fill:#000000; fill-opacity:1.0000; stroke:none;fill-rule:evenodd;"
d="M 140.5669,76.1928
140.6288,76.2037
140.6721,76.2192
140.7116,76.2426
140.7405,76.2685
140.7606,76.2969
140.7731,76.3300
140.7825,76.3847
140.7863,76.4697
140.7842,76.6952
140.7870,76.7850
140.7935,76.8371
140.8062,76.8830
140.8280,76.9350
140.6381,76.9350
140.6196,76.8791
140.6128,76.8568
140.5611,76.9001
140.5076,76.9301
140.4500,76.9484
140.3880,76.9545
140.3323,76.9503
140.2852,76.9383
140.2453,76.9193
140.2114,76.8934
140.1832,76.8608
140.1632,76.8247
140.1511,76.7844
140.1469,76.7389
140.1486,76.7182
140.3388,76.7182
140.3421,76.7440
140.3520,76.7671
140.3688,76.7883
140.3904,76.8045
140.4156,76.8143
140.4454,76.8178
140.4789,76.8141
140.5117,76.8029
140.5444,76.7834
140.5736,76.7540
140.5902,76.7196
140.5953,76.6894
140.5977,76.6256
140.5977,76.5872
140.4809,76.6167
140.4083,76.6358
140.3764,76.6503
140.3550,76.6704
140.3429,76.6927
140.3388,76.7182
140.1486,76.7182
140.1503,76.6985
140.1601,76.6620
140.1763,76.6287
140.1984,76.5990
140.2256,76.5744
140.2586,76.5545
140.3178,76.5320
140.4112,76.5095
140.5351,76.4824
140.5977,76.4621
140.5977,76.4425
140.5941,76.4056
140.5846,76.3795
140.5703,76.3613
140.5503,76.3493
140.5177,76.3406
140.4672,76.3371
140.4197,76.3428
140.3873,76.3579
140.3627,76.3844
140.3409,76.4309
140.1667,76.3996
140.1922,76.3315
140.2260,76.2793
140.2677,76.2403
140.3041,76.2194
140.3503,76.2032
140.4084,76.1925
140.4809,76.1886
Z" /> 
<path style="fill:#000000; fill-opacity:1.0000; stroke:none;fill-rule:evenodd;"
d="M 141.6208,76.9350
141.2628,75.9307
141.4821,75.9307
141.7356,76.6732
141.9808,75.9307
142.1953,75.9307
141.8366,76.9350
Z" /> 
<path style="fill:#000000; fill-opacity:1.0000; stroke:none;fill-rule:evenodd;"
d="M 142.5757,76.1958
142.6433,76.2164
142.7015,76.2497
142.7519,76.2963
142.7829,76.3397
142.8081,76.3925
142.8269,76.4565
142.8384,76.5336
142.8414,76.6263
142.3605,76.6263
142.3671,76.6813
142.3829,76.7246
142.4069,76.7587
142.4390,76.7851
142.4754,76.8007
142.5176,76.8060
142.5598,76.7998
142.5934,76.7820
142.6193,76.7524
142.6399,76.7044
142.8311,76.7357
142.8008,76.8031
142.7620,76.8567
142.7146,76.8986
142.6591,76.9289
142.5935,76.9478
142.5155,76.9545
142.4396,76.9489
142.3754,76.9330
142.3210,76.9079
142.2747,76.8736
142.2355,76.8297
142.2050,76.7783
142.1827,76.7199
142.1686,76.6533
142.1637,76.5771
142.1687,76.5090
142.3639,76.5090
142.6508,76.5090
142.6444,76.4543
142.6297,76.4126
142.6078,76.3809
142.5782,76.3564
142.5453,76.3420
142.5080,76.3371
142.4682,76.3423
142.4340,76.3576
142.4042,76.3834
142.3822,76.4164
142.3685,76.4576
142.3639,76.5090
142.1687,76.5090
142.1703,76.4860
142.1889,76.4098
142.2183,76.3457
142.2580,76.2918
142.3085,76.2464
142.3643,76.2146
142.4263,76.1953
142.4964,76.1886
Z" /> 
<path style="fill:#000000; fill-opacity:1.0000; stroke:none;fill-rule:evenodd;"
d="M 143.3245,76.1960
143.3818,76.2177
143.4341,76.2543
143.4824,76.3081
143.4824,76.2081
143.6621,76.2081
143.6621,76.8617
143.6592,76.9485
143.6516,77.0109
143.6409,77.0544
143.6145,77.1128
143.5814,77.1545
143.5384,77.1860
143.4793,77.2114
143.4110,77.2263
143.3178,77.2320
143.2222,77.2269
143.1496,77.2132
143.0956,77.1931
143.0562,77.1679
143.0220,77.1331
142.9982,77.0950
142.9839,77.0529
142.9790,77.0055
142.9797,76.9819
143.1989,77.0053
143.2088,77.0417
143.2242,77.0616
143.2564,77.0772
143.3103,77.0835
143.3602,77.0804
143.3968,77.0724
143.4230,77.0607
143.4447,77.0414
143.4613,77.0116
143.4674,76.9822
143.4701,76.9223
143.4701,76.8151
143.4224,76.8692
143.3711,76.9060
143.3151,76.9276
143.2529,76.9350
143.1962,76.9299
143.1457,76.9151
143.1003,76.8908
143.0589,76.8564
143.0213,76.8106
142.9929,76.7603
142.9720,76.7035
142.9590,76.6392
142.9544,76.5659
142.9551,76.5551
143.1511,76.5551
143.1571,76.6314
143.1727,76.6863
143.1958,76.7249
143.2286,76.7552
143.2649,76.7728
143.3062,76.7787
143.3506,76.7726
143.3898,76.7545
143.4251,76.7235
143.4506,76.6838
143.4673,76.6307
143.4735,76.5600
143.4675,76.4857
143.4513,76.4313
143.4271,76.3920
143.3931,76.3613
143.3544,76.3433
143.3096,76.3371
143.2661,76.3431
143.2287,76.3608
143.1958,76.3909
143.1725,76.4295
143.1570,76.4827
143.1511,76.5551
142.9551,76.5551
142.9607,76.4735
142.9783,76.3978
143.0057,76.3360
143.0421,76.2855
143.0893,76.2427
143.1406,76.2128
143.1972,76.1948
143.2604,76.1886
Z" /> 
<path style="fill:#000000; fill-opacity:1.0000; stroke:none;fill-rule:evenodd;"
d="M 144.2218,76.1928
144.2837,76.2037
144.3270,76.2192
144.3664,76.2426
144.3953,76.2685
144.4155,76.2969
144.4280,76.3300
144.4373,76.3847
144.4411,76.4697
144.4391,76.6952
144.4418,76.7850
144.4483,76.8371
144.4611,76.8830
144.4828,76.9350
144.2929,76.9350
144.2745,76.8791
144.2676,76.8568
144.2159,76.9001
144.1624,76.9301
144.1048,76.9484
144.0429,76.9545
143.9871,76.9503
143.9400,76.9383
143.9002,76.9193
143.8663,76.8934
143.8380,76.8608
143.8181,76.8247
143.8059,76.7844
143.8017,76.7389
143.8035,76.7182
143.9937,76.7182
143.9970,76.7440
144.0068,76.7671
144.0237,76.7883
144.0453,76.8045
144.0704,76.8143
144.1002,76.8178
144.1337,76.8141
144.1665,76.8029
144.1992,76.7834
144.2284,76.7540
144.2450,76.7196
144.2502,76.6894
144.2525,76.6256
144.2525,76.5872
144.1357,76.6167
144.0631,76.6358
144.0312,76.6503
144.0099,76.6704
143.9977,76.6927
143.9937,76.7182
143.8035,76.7182
143.8051,76.6985
143.8149,76.6620
143.8311,76.6287
143.8532,76.5990
143.8805,76.5744
143.9134,76.5545
143.9727,76.5320
144.0661,76.5095
144.1899,76.4824
144.2525,76.4621
144.2525,76.4425
144.2490,76.4056
144.2395,76.3795
144.2252,76.3613
144.2052,76.3493
144.1726,76.3406
144.1221,76.3371
144.0746,76.3428
144.0421,76.3579
144.0176,76.3844
143.9957,76.4309
143.8215,76.3996
143.8471,76.3315
143.8809,76.2793
143.9226,76.2403
143.9590,76.2194
144.0052,76.2032
144.0633,76.1925
144.1357,76.1886
Z" /> 
<path style="fill:#000000; fill-opacity:1.0000; stroke:none;fill-rule:evenodd;"
d="M 138.7456,133.0191
138.7456,135.6793
138.6404,135.6793
138.5351,135.6793
138.5351,133.0191
138.5351,130.3588
138.6404,130.3588
138.7456,130.3588
Z" /> 
<path style="fill:#000000; fill-opacity:1.0000; stroke:none;fill-rule:evenodd;"
d="M 139.5572,130.8698
139.5572,131.3808
139.4369,131.3808
139.3167,131.3808
139.3167,130.8698
139.3167,130.3588
139.4369,130.3588
139.5572,130.3588
Z" /> 
<path style="fill:#000000; fill-opacity:1.0000; stroke:none;fill-rule:evenodd;"
d="M 146.3430,130.3645
146.4557,130.3738
146.4640,130.8773
146.4722,131.3808
146.3513,131.3808
146.2303,131.3808
146.2303,130.8680
146.2303,130.3552
Z" /> 
<path style="fill:#000000; fill-opacity:1.0000; stroke:none;fill-rule:evenodd;"
d="M 144.4042,131.7470
144.4718,131.7566
144.4798,132.5456
144.4879,133.3347
144.9984,133.3347
145.5089,133.3347
145.5089,133.4098
145.5089,133.4850
144.9227,133.4850
144.3366,133.4850
144.3366,132.6112
144.3366,131.7374
Z" /> 
<path style="fill:#000000; fill-opacity:1.0000; stroke:none;fill-rule:evenodd;"
d="M 148.0940,130.7646
148.0940,131.1704
148.2719,131.1704
148.4026,131.1740
148.4842,131.1879
148.5277,131.2171
148.5437,131.2665
148.5449,131.2939
148.5449,131.3808
148.1992,131.3808
147.8535,131.3808
147.8535,130.8698
147.8535,130.3588
147.9737,130.3588
148.0940,130.3588
Z" /> 
<path style="fill:#000000; fill-opacity:1.0000; stroke:none;fill-rule:evenodd;"
d="M 144.5545,130.3655
144.9828,130.3738
144.9922,130.4549
144.9939,130.5020
144.9757,130.5273
144.9234,130.5392
144.8419,130.5451
144.6822,130.5542
144.6739,130.9675
144.6655,131.3808
144.5470,131.3808
144.4284,131.3808
144.4201,130.9675
144.4117,130.5542
144.2689,130.5450
144.1828,130.5369
144.1408,130.5198
144.1273,130.4828
144.1262,130.4465
144.1262,130.3572
Z" /> 
<path style="fill:#000000; fill-opacity:1.0000; stroke:none;fill-rule:evenodd;"
d="M 140.5191,131.9060
140.5191,132.0705
140.0907,132.0789
139.6624,132.0872
139.6529,132.2201
139.6464,132.3297
139.6512,132.4051
139.6765,132.4528
139.7311,132.4791
139.8241,132.4904
139.9645,132.4930
140.0387,132.4930
140.3988,132.4930
140.3988,132.6274
140.3988,132.7617
140.0306,132.7701
139.6624,132.7786
139.6539,133.1318
139.6454,133.4850
139.4660,133.4850
139.2866,133.4850
139.2866,132.6133
139.2866,131.7415
139.9028,131.7415
140.5191,131.7415
Z" /> 
<path style="fill:#000000; fill-opacity:1.0000; stroke:none;fill-rule:evenodd;"
d="M 144.2403,133.9075
144.3792,133.9120
144.4854,133.9189
144.5481,133.9275
144.5601,133.9328
144.5665,133.9789
144.5583,134.0520
144.5583,134.0520
144.5399,134.1443
144.2203,134.1528
143.9007,134.1613
143.9007,134.4018
143.9007,134.6422
144.1637,134.6509
144.4267,134.6596
144.4267,134.7625
144.4267,134.8654
144.1637,134.8740
143.9007,134.8827
143.9007,135.1533
143.9007,135.4238
144.2389,135.4323
144.5770,135.4408
144.5770,135.5600
144.5770,135.6793
144.0961,135.6793
143.6151,135.6793
143.6151,134.7925
143.6151,133.9058
144.0793,133.9058
Z" /> 
<path style="fill:#000000; fill-opacity:1.0000; stroke:none;fill-rule:evenodd;"
d="M 145.8170,133.9116
145.9447,133.9208
145.9447,134.7925
145.9447,135.6643
145.8245,135.6731
145.7043,135.6819
145.3736,135.0118
145.0430,134.3417
145.0349,135.0105
145.0268,135.6793
144.8916,135.6793
144.7565,135.6793
144.7645,134.8001
144.7724,133.9208
144.9616,133.9118
145.1507,133.9029
145.3749,134.3675
145.4487,134.5227
145.5125,134.6607
145.5617,134.7718
145.5922,134.8462
145.6001,134.8724
145.6150,134.9270
145.6441,134.9879
145.6590,135.0086
145.6700,135.0070
145.6778,134.9768
145.6830,134.9113
145.6861,134.8040
145.6876,134.6484
145.6882,134.4827
145.6892,133.9023
Z" /> 
<path style="fill:#000000; fill-opacity:1.0000; stroke:none;fill-rule:evenodd;"
d="M 139.9444,130.3622
139.9843,130.3774
140.0281,130.4122
140.0839,130.4744
140.1601,130.5718
140.2370,130.6744
140.3261,130.7919
140.4034,130.8896
140.4615,130.9583
140.4931,130.9892
140.4954,130.9901
140.5051,130.9621
140.5129,130.8864
140.5178,130.7754
140.5191,130.6744
140.5191,130.3588
140.6243,130.3588
140.7295,130.3588
140.7295,130.8698
140.7295,131.3808
140.6159,131.3808
140.5684,131.3786
140.5281,131.3668
140.4868,131.3378
140.4359,131.2838
140.3672,131.1972
140.2722,131.0704
140.2627,131.0577
140.0231,130.7346
140.0145,131.0577
140.0060,131.3808
139.9018,131.3808
139.7976,131.3808
139.7976,130.8698
139.7976,130.3588
139.9000,130.3588
Z" /> 
<path style="fill:#000000; fill-opacity:1.0000; stroke:none;fill-rule:evenodd;"
d="M 142.9163,130.3645
143.0290,130.3738
143.0281,130.7496
143.0244,130.9391
143.0118,131.0790
142.9872,131.1796
142.9470,131.2512
142.8879,131.3040
142.8367,131.3337
142.7138,131.3755
142.5705,131.3944
142.4405,131.3864
142.4278,131.3836
142.3148,131.3471
142.2316,131.2962
142.1741,131.2222
142.1378,131.1163
142.1187,130.9698
142.1123,130.7739
142.1122,130.7356
142.1122,130.3552
142.2249,130.3645
142.3376,130.3738
142.3527,130.7346
142.3603,130.8780
142.3701,131.0007
142.3807,131.0893
142.3906,131.1305
142.4416,131.1658
142.5248,131.1885
142.6129,131.1929
142.6529,131.1856
142.7154,131.1479
142.7596,131.0762
142.7876,130.9637
142.8013,130.8032
142.8036,130.6741
142.8036,130.3552
Z" /> 
<path style="fill:#000000; fill-opacity:1.0000; stroke:none;fill-rule:evenodd;"
d="M 141.2815,130.3648
141.4703,130.3791
141.6117,130.4062
141.7179,130.4508
141.8012,130.5178
141.8641,130.5978
141.9099,130.7040
141.9324,130.8374
141.9309,130.9749
141.9048,131.0936
141.8805,131.1412
141.8008,131.2395
141.7126,131.3079
141.6034,131.3511
141.4606,131.3738
141.2721,131.3808
141.2565,131.3808
140.9699,131.3808
140.9699,131.2081
141.2083,131.2081
141.3798,131.1939
141.4897,131.1791
141.5617,131.1515
141.6177,131.1024
141.6213,131.0982
141.6819,130.9851
141.6933,130.8560
141.6562,130.7287
141.6056,130.6545
141.5417,130.5937
141.4758,130.5650
141.3799,130.5565
141.3726,130.5564
141.2254,130.5542
141.2169,130.8811
141.2083,131.2081
140.9699,131.2081
140.9699,130.8659
140.9699,130.3509
Z" /> 
<path style="fill:#000000; fill-opacity:1.0000; stroke:none;fill-rule:evenodd;"
d="M 143.3747,134.6184
143.3739,134.8702
143.3703,135.0695
143.3622,135.2237
143.3479,135.3403
143.3257,135.4270
143.2937,135.4913
143.2503,135.5406
143.1937,135.5826
143.1461,135.6112
143.0732,135.6463
142.9938,135.6668
142.8889,135.6760
142.7735,135.6776
142.6031,135.6707
142.4837,135.6502
142.4288,135.6286
142.3550,135.5851
142.2968,135.5387
142.2524,135.4819
142.2200,135.4073
142.1977,135.3075
142.1836,135.1751
142.1759,135.0026
142.1728,134.7826
142.1723,134.5965
142.1723,133.9025
142.3151,133.9117
142.4579,133.9208
142.4729,134.6224
142.4879,135.3239
142.5723,135.3964
142.6823,135.4547
142.8076,135.4657
142.9299,135.4322
143.0313,135.3570
143.0591,135.3204
143.0684,135.2777
143.0779,135.1842
143.0870,135.0492
143.0952,134.8819
143.1018,134.6917
143.1041,134.5972
143.1192,133.9208
143.2469,133.9116
143.3747,133.9023
Z" /> 
<path style="fill:#000000; fill-opacity:1.0000; stroke:none;fill-rule:evenodd;"
d="M 139.7075,134.5487
139.7079,134.7634
139.7095,134.9262
139.7130,135.0457
139.7191,135.1300
139.7285,135.1876
139.7418,135.2268
139.7596,135.2559
139.7646,135.2622
139.8425,135.3157
139.9452,135.3336
140.0488,135.3162
140.1299,135.2637
140.1340,135.2588
140.1522,135.2311
140.1659,135.1934
140.1756,135.1374
140.1821,135.0550
140.1860,134.9378
140.1879,134.7776
140.1884,134.5661
140.1884,134.5487
140.1884,133.9058
140.4012,133.9058
140.6141,133.9058
140.6041,134.6047
140.6003,134.8353
140.5956,135.0137
140.5896,135.1480
140.5816,135.2462
140.5710,135.3161
140.5571,135.3659
140.5427,135.3977
140.4342,135.5357
140.2849,135.6339
140.1005,135.6903
139.8868,135.7030
139.6980,135.6802
139.5434,135.6225
139.4182,135.5136
139.3548,135.4210
139.3333,135.3808
139.3170,135.3393
139.3051,135.2881
139.2969,135.2186
139.2917,135.1224
139.2888,134.9910
139.2875,134.8160
139.2871,134.6047
139.2866,133.9058
139.4970,133.9058
139.7075,133.9058
Z" /> 
<path style="fill:#000000; fill-opacity:1.0000; stroke:none;fill-rule:evenodd;"
d="M 141.6845,133.8907
141.8717,133.9501
141.8935,133.9611
141.9905,134.0118
141.9236,134.0939
141.8807,134.1426
141.8435,134.1605
141.7893,134.1516
141.7224,134.1290
141.5637,134.0998
141.4212,134.1251
141.2989,134.2006
141.2010,134.3219
141.1316,134.4846
141.0949,134.6843
141.0902,134.7966
141.1010,134.9384
141.1296,135.0857
141.1704,135.2142
141.2034,135.2805
141.2880,135.3668
141.4055,135.4302
141.5379,135.4664
141.6673,135.4708
141.7759,135.4393
141.7983,135.4247
141.8509,135.3894
141.8871,135.3892
141.9275,135.4295
141.9566,135.4681
142.0227,135.5575
141.9033,135.6184
141.7909,135.6555
141.6462,135.6761
141.4907,135.6796
141.3465,135.6658
141.2352,135.6343
141.2254,135.6295
141.0637,135.5125
140.9315,135.3523
140.8746,135.2470
140.8392,135.1561
140.8179,135.0630
140.8076,134.9478
140.8050,134.8076
140.8072,134.6614
140.8167,134.5551
140.8368,134.4682
140.8712,134.3806
140.8828,134.3553
140.9968,134.1719
141.1425,134.0304
141.3114,133.9341
141.4949,133.8865
Z" /> 
<path style="fill:#000000; fill-opacity:1.0000; stroke:none;fill-rule:evenodd;"
d="M 145.6057,130.3691
145.7770,130.3990
145.8956,130.4550
145.9265,130.4826
145.9853,130.5861
146.0041,130.7137
145.9837,130.8450
145.9247,130.9598
145.9086,130.9787
145.8684,131.0283
145.8542,131.0737
145.8684,131.1294
145.9136,131.2100
145.9611,131.2831
146.0258,131.3808
145.8881,131.3808
145.8087,131.3781
145.7591,131.3613
145.7209,131.3173
145.6754,131.2329
145.6733,131.2288
145.6270,131.1426
145.5900,131.0984
145.5459,131.0839
145.4849,131.0860
145.4177,131.0946
145.3837,131.1170
145.3698,131.1701
145.3644,131.2380
145.3553,131.3808
145.2360,131.3808
145.1167,131.3808
145.1249,130.8773
145.1272,130.7369
145.3591,130.7369
145.3628,130.8195
145.3745,130.8737
145.3786,130.8798
145.4300,130.8981
145.5151,130.9011
145.6099,130.8908
145.6905,130.8694
145.7244,130.8501
145.7715,130.7728
145.7743,130.6828
145.7339,130.6043
145.7126,130.5860
145.6377,130.5536
145.5455,130.5397
145.4571,130.5440
145.3936,130.5666
145.3768,130.5867
145.3638,130.6510
145.3591,130.7369
145.1272,130.7369
145.1331,130.3738
145.3809,130.3651
Z" /> 
<path style="fill:#000000; fill-opacity:1.0000; stroke:none;fill-rule:evenodd;"
d="M 143.8158,130.3747
143.9307,130.4037
143.9855,130.4327
144.0198,130.4648
144.0221,130.5007
143.9935,130.5641
143.9912,130.5687
143.9484,130.6316
143.9120,130.6392
143.9064,130.6354
143.8295,130.5949
143.7261,130.5635
143.6251,130.5484
143.5685,130.5519
143.5096,130.5891
143.4969,130.6462
143.5317,130.7034
143.5574,130.7208
143.6231,130.7491
143.7183,130.7827
143.7662,130.7977
143.8997,130.8601
143.9913,130.9504
144.0358,131.0592
144.0280,131.1769
144.0050,131.2322
143.9363,131.3024
143.8260,131.3517
143.6897,131.3783
143.5428,131.3803
143.4009,131.3557
143.3070,131.3187
143.2251,131.2645
143.1975,131.2115
143.2199,131.1481
143.2326,131.1295
143.2596,131.1000
143.2926,131.0944
143.3499,131.1136
143.4055,131.1381
143.5360,131.1836
143.6504,131.1980
143.7351,131.1804
143.7623,131.1592
143.7840,131.0974
143.7500,131.0396
143.6647,130.9924
143.6501,130.9874
143.4617,130.9155
143.3309,130.8392
143.2553,130.7560
143.2322,130.6633
143.2535,130.5714
143.2968,130.4921
143.3420,130.4363
143.4233,130.3945
143.5425,130.3703
143.6799,130.3636
Z" /> 
<path style="fill:#000000; fill-opacity:1.0000; stroke:none;fill-rule:evenodd;"
d="M 147.1648,130.3645
147.2899,130.3738
147.4817,130.8247
147.5626,131.0144
147.6221,131.1555
147.6617,131.2551
147.6825,131.3205
147.6859,131.3586
147.6732,131.3767
147.6457,131.3818
147.6047,131.3811
147.5834,131.3808
147.5016,131.3756
147.4578,131.3516
147.4301,131.2960
147.4282,131.2906
147.4105,131.2459
147.3867,131.2191
147.3429,131.2057
147.2652,131.2010
147.1566,131.2005
147.0371,131.2013
146.9637,131.2068
146.9224,131.2216
146.8991,131.2504
146.8824,131.2906
146.8536,131.3484
146.8111,131.3743
146.7332,131.3808
146.7211,131.3808
146.5939,131.3808
146.7156,131.0878
146.7600,130.9825
147.0119,130.9825
147.0405,131.0087
147.1242,131.0198
147.1471,131.0201
147.2360,131.0129
147.2797,130.9932
147.2824,130.9852
147.2730,130.9249
147.2495,130.8422
147.2184,130.7553
147.1866,130.6821
147.1608,130.6408
147.1530,130.6374
147.1284,130.6685
147.0940,130.7373
147.0578,130.8240
147.0280,130.9091
147.0125,130.9727
147.0119,130.9825
146.7600,130.9825
146.7805,130.9340
146.8508,130.7714
146.9150,130.6264
146.9384,130.5750
147.0396,130.3552
Z" /> 
<path style="fill:#000000; fill-opacity:1.0000; stroke:none;fill-rule:evenodd;"
d="M 148.4504,134.0937
148.5192,134.3076
148.5901,134.5292
148.6603,134.7502
148.7274,134.9624
148.7886,135.1575
148.8414,135.3272
148.8833,135.4632
148.9116,135.5574
148.9230,135.5984
148.9430,135.6829
148.7965,135.6736
148.6501,135.6643
148.5768,135.4453
148.5036,135.2264
148.2053,135.2349
147.9071,135.2434
147.8417,135.4538
147.7762,135.6643
147.6306,135.6736
147.5412,135.6753
147.5015,135.6639
147.4993,135.6435
147.5120,135.6059
147.5407,135.5185
147.5832,135.3889
147.6370,135.2245
147.6996,135.0328
147.7215,134.9654
148.0035,134.9654
148.0312,134.9764
148.1039,134.9845
148.2064,134.9879
148.2176,134.9879
148.4314,134.9879
148.4160,134.9053
148.3973,134.8207
148.3687,134.7099
148.3344,134.5867
148.2982,134.4643
148.2644,134.3564
148.2368,134.2765
148.2195,134.2380
148.2173,134.2365
148.2043,134.2633
148.1795,134.3348
148.1470,134.4377
148.1105,134.5586
148.0742,134.6842
148.0417,134.8010
148.0172,134.8959
148.0044,134.9553
148.0035,134.9654
147.7215,134.9654
147.7685,134.8212
147.7901,134.7550
148.0665,133.9058
148.2281,133.9058
148.3897,133.9058
Z" /> 
<path style="fill:#000000; fill-opacity:1.0000; stroke:none;fill-rule:evenodd;"
d="M 146.9761,133.8966
147.1067,133.9125
147.2064,133.9417
147.2147,133.9459
147.2856,133.9885
147.3063,134.0261
147.2812,134.0786
147.2542,134.1151
147.2096,134.1644
147.1687,134.1700
147.1149,134.1452
147.0048,134.1108
146.8748,134.1049
146.7514,134.1262
146.6735,134.1634
146.6087,134.2268
146.5428,134.3142
146.5259,134.3417
146.4945,134.4032
146.4742,134.4669
146.4626,134.5481
146.4574,134.6616
146.4563,134.7925
146.4605,134.9781
146.4766,135.1164
146.5089,135.2194
146.5620,135.2997
146.6402,135.3693
146.6735,135.3929
146.8107,135.4531
146.9649,135.4685
147.1124,135.4375
147.1459,135.4221
147.2092,135.3938
147.2477,135.4002
147.2880,135.4449
147.3323,135.5164
147.3292,135.5665
147.2739,135.6080
147.2216,135.6309
147.1167,135.6580
146.9805,135.6730
146.8348,135.6759
146.7012,135.6663
146.6012,135.6440
146.5900,135.6393
146.4232,135.5364
146.2975,135.3964
146.2397,135.2953
146.2008,135.2103
146.1760,135.1348
146.1622,135.0507
146.1563,134.9402
146.1551,134.8076
146.1567,134.6591
146.1634,134.5528
146.1784,134.4708
146.2048,134.3951
146.2394,134.3204
146.3630,134.1361
146.5344,133.9865
146.6211,133.9342
146.7109,133.9071
146.8367,133.8947
Z" /> 
<path style="fill:#000000; fill-opacity:1.0000; stroke:none;fill-rule:evenodd;"
d="M 141.4894,131.7477
141.6688,131.7566
141.9071,132.3728
142.0084,132.6355
142.0988,132.8715
142.1765,133.0758
142.2396,133.2433
142.2862,133.3693
142.3145,133.4485
142.3226,133.4757
142.2953,133.4806
142.2242,133.4839
142.1418,133.4850
142.0557,133.4841
141.9967,133.4749
141.9545,133.4474
141.9190,133.3915
141.8798,133.2974
141.8401,133.1910
141.8035,133.0924
141.4580,133.1008
141.1125,133.1092
141.0487,133.2896
140.9850,133.4699
140.7971,133.4789
140.6998,133.4821
140.6319,133.4816
140.6092,133.4780
140.6196,133.4480
140.6480,133.3724
140.6905,133.2617
140.7432,133.1261
140.7619,133.0783
140.8249,132.9171
140.8715,132.7973
141.2405,132.7973
141.2681,132.8099
141.3411,132.8192
141.4448,132.8236
141.4659,132.8237
141.5916,132.8202
141.6638,132.8092
141.6892,132.7895
141.6894,132.7861
141.6777,132.7314
141.6501,132.6437
141.6121,132.5375
141.5695,132.4273
141.5279,132.3277
141.4930,132.2532
141.4704,132.2186
141.4681,132.2177
141.4490,132.2440
141.4160,132.3127
141.3748,132.4093
141.3311,132.5192
141.2907,132.6281
141.2590,132.7213
141.2420,132.7845
141.2405,132.7973
140.8715,132.7973
140.8868,132.7581
140.9409,132.6188
140.9805,132.5162
140.9837,132.5080
141.0281,132.3921
141.0836,132.2475
141.1396,132.1017
141.1509,132.0722
141.1979,131.9542
141.2403,131.8554
141.2713,131.7912
141.2796,131.7778
141.3341,131.7530
141.4447,131.7462
Z" /> 
<path style="fill:#000000; fill-opacity:1.0000; stroke:none;fill-rule:evenodd;"
d="M 146.3578,131.7415
146.3608,131.7415
146.4286,131.7559
146.4617,131.7791
146.4794,131.8146
146.5159,131.8968
146.5678,132.0173
146.6316,132.1675
146.7037,132.3390
146.7807,132.5235
146.8591,132.7124
146.9353,132.8974
147.0059,133.0700
147.0674,133.2217
147.1162,133.3441
147.1489,133.4289
147.1620,133.4674
147.1621,133.4684
147.1365,133.4804
147.0810,133.4795
147.0400,133.4687
147.0055,133.4400
146.9698,133.3827
146.9256,133.2858
146.8932,133.2074
146.7864,132.9448
146.3609,132.9444
145.9353,132.9439
145.8389,133.1769
145.7908,133.2891
145.7479,133.3819
145.7176,133.4395
145.7122,133.4474
145.6674,133.4759
145.6124,133.4842
145.5739,133.4703
145.5690,133.4569
145.5803,133.4226
145.6121,133.3408
145.6612,133.2192
145.7245,133.0655
145.7988,132.8876
145.8417,132.7861
145.9899,132.7861
146.0180,132.7890
146.0946,132.7914
146.2082,132.7930
146.3472,132.7936
146.3526,132.7936
146.5052,132.7929
146.6071,132.7899
146.6675,132.7832
146.6958,132.7714
146.7011,132.7530
146.6981,132.7410
146.6640,132.6437
146.6181,132.5227
146.5652,132.3895
146.5100,132.2557
146.4575,132.1326
146.4124,132.0317
146.3795,131.9646
146.3639,131.9425
146.3475,131.9696
146.3127,132.0404
146.2649,132.1432
146.2090,132.2664
146.1503,132.3983
146.0940,132.5273
146.0453,132.6417
146.0092,132.7298
145.9911,132.7800
145.9899,132.7861
145.8417,132.7861
145.8662,132.7280
145.9763,132.4680
146.0654,132.2581
146.1361,132.0927
146.1910,131.9667
146.2329,131.8748
146.2643,131.8116
146.2879,131.7718
146.3064,131.7503
146.3225,131.7416
146.3387,131.7404
Z" /> 
<path style="fill:#000000; fill-opacity:1.0000; stroke:none;fill-rule:evenodd;"
d="M 143.0741,131.7581
143.2741,131.7596
143.4241,131.7634
143.5338,131.7704
143.6132,131.7813
143.6723,131.7970
143.7090,131.8123
143.8253,131.8981
143.8931,132.0191
143.9121,132.1752
143.9093,132.2190
143.8925,132.3235
143.8593,132.3937
143.7995,132.4538
143.7047,132.5323
143.7954,132.5876
143.9128,132.6870
143.9799,132.8148
143.9996,132.9765
143.9980,133.0131
143.9862,133.1214
143.9608,133.1957
143.9110,133.2622
143.8820,133.2923
143.8014,133.3594
143.7058,133.4098
143.5862,133.4456
143.4335,133.4687
143.2387,133.4810
143.0055,133.4846
142.8195,133.4833
142.6871,133.4787
142.6018,133.4702
142.5569,133.4573
142.5466,133.4470
142.5431,133.4079
142.5404,133.3169
142.5387,133.1844
142.8912,133.1844
143.1944,133.1844
143.3342,133.1833
143.4277,133.1783
143.4888,133.1667
143.5315,133.1456
143.5695,133.1125
143.5714,133.1106
143.6317,133.0237
143.6390,132.9288
143.5996,132.8226
143.5646,132.7691
143.5180,132.7340
143.4481,132.7142
143.3432,132.7068
143.1919,132.7087
143.1643,132.7096
142.9088,132.7185
142.9000,132.9514
142.8912,133.1844
142.5387,133.1844
142.5387,133.1821
142.5380,133.0116
142.5384,132.8137
142.5399,132.5964
142.5400,132.5828
142.5434,132.2325
142.5453,132.0421
142.8937,132.0421
142.8937,132.2325
142.8967,132.3345
142.9044,132.4111
142.9138,132.4429
142.9567,132.4557
143.0410,132.4619
143.1485,132.4621
143.2607,132.4566
143.3593,132.4459
143.4247,132.4310
143.5057,132.3879
143.5446,132.3260
143.5546,132.2317
143.5427,132.1522
143.5010,132.0972
143.4219,132.0630
143.2975,132.0459
143.1576,132.0421
142.8937,132.0421
142.5453,132.0421
142.5480,131.7566
Z" /> 
<path style="fill:#000000; fill-opacity:1.0000; stroke:none;fill-rule:evenodd;"
d="M 137.7945,131.6439
137.8329,131.7331
137.8800,131.8636
137.9305,132.0182
137.9790,132.1798
138.0203,132.3311
138.0489,132.4551
138.0528,132.4760
138.0814,132.7555
138.0775,133.0634
138.0437,133.3823
137.9823,133.6945
137.8961,133.9823
137.8077,134.1895
137.5907,134.5563
137.3317,134.8831
137.0345,135.1669
136.7031,135.4047
136.3414,135.5936
135.9531,135.7306
135.7246,135.7837
135.5968,135.8057
135.4792,135.8220
135.3941,135.8294
135.3847,135.8296
135.3225,135.8264
135.2954,135.8058
135.2914,135.7508
135.2945,135.7028
135.2992,135.6556
135.3095,135.6156
135.3319,135.5776
135.3724,135.5368
135.4374,135.4882
135.5331,135.4267
135.6657,135.3475
135.8414,135.2456
135.9350,135.1916
136.1153,135.0877
136.3227,134.9679
136.5325,134.8465
136.7199,134.7380
136.7316,134.7312
136.8901,134.6395
137.0474,134.5490
137.1885,134.4682
137.2980,134.4059
137.3260,134.3902
137.5147,134.2845
137.5064,133.8472
137.5027,133.6770
137.4984,133.5581
137.4919,133.4817
137.4820,133.4390
137.4672,133.4210
137.4462,133.4190
137.4395,133.4200
137.3213,133.4674
137.2002,133.5636
137.0867,133.6987
137.0128,133.8200
136.8634,134.0611
136.6950,134.2547
136.5117,134.3979
136.3176,134.4873
136.1167,134.5199
136.1141,134.5199
136.0010,134.5168
135.9217,134.4992
135.8504,134.4600
135.8168,134.4354
135.7289,134.3552
135.6700,134.2644
135.6360,134.1504
135.6228,134.0004
135.6243,133.8478
135.6316,133.7031
135.6450,133.5966
135.6694,133.5063
135.7098,133.4103
135.7371,133.3542
135.8670,133.1363
136.0185,132.9541
136.1852,132.8112
136.3606,132.7110
136.5384,132.6571
136.7122,132.6528
136.8756,132.7018
136.9044,132.7170
137.0320,132.7900
137.2718,132.6552
137.5115,132.5204
137.5198,132.1117
137.5282,131.7029
137.6401,131.6321
137.7521,131.5613
Z" /> 
<path style="fill:#000000; fill-opacity:1.0000; stroke:none;fill-rule:evenodd;"
d="M 132.6513,131.6353
132.7229,131.6693
132.7311,131.6739
132.8235,131.7265
132.8242,132.9890
132.8248,133.2595
132.8264,133.5117
132.8288,133.7393
132.8320,133.9358
132.8357,134.0947
132.8399,134.2096
132.8445,134.2741
132.8469,134.2855
132.8820,134.3146
132.9561,134.3623
133.0573,134.4218
133.1732,134.4868
133.2918,134.5504
133.4009,134.6062
133.4883,134.6476
133.5418,134.6679
133.5519,134.6683
133.5627,134.6335
133.5709,134.5538
133.5751,134.4443
133.5754,134.4070
133.5726,134.2742
133.5618,134.1828
133.5394,134.1141
133.5057,134.0556
133.4585,133.9740
133.4018,133.8610
133.3479,133.7409
133.2989,133.6117
133.2721,133.4996
133.2619,133.3746
133.2611,133.2900
133.2760,133.0894
133.3204,132.9352
133.3981,132.8196
133.5127,132.7348
133.5232,132.7293
133.6926,132.6743
133.8681,132.6789
134.0495,132.7428
134.2360,132.8661
134.3720,132.9902
134.5584,133.2141
134.6865,133.4492
134.7573,133.6976
134.7712,133.8210
134.7771,133.9978
134.7672,134.1311
134.7373,134.2365
134.6833,134.3296
134.6104,134.4158
134.4772,134.5583
134.4772,134.8608
134.4789,134.9940
134.4835,135.1075
134.4903,135.1860
134.4952,135.2103
134.5281,135.2438
134.6024,135.2959
134.7054,135.3585
134.7807,135.4003
135.0483,135.5432
135.0483,135.6864
135.0459,135.7726
135.0328,135.8142
134.9998,135.8265
134.9656,135.8263
134.8951,135.8193
134.7881,135.8041
134.6674,135.7837
134.6623,135.7828
134.2590,135.6818
133.8883,135.5311
133.5465,135.3288
133.2301,135.0728
133.0552,134.8974
132.7860,134.5680
132.5724,134.2219
132.4160,133.8619
132.3728,133.7254
132.3346,133.5476
132.3068,133.3290
132.2904,133.0883
132.2862,132.8440
132.2951,132.6148
132.3115,132.4598
132.3352,132.3352
132.3708,132.1934
132.4143,132.0459
132.4617,131.9043
132.5090,131.7801
132.5522,131.6849
132.5873,131.6300
132.6019,131.6213
Z" /> 
<path style="fill:#000000; fill-opacity:1.0000; stroke:none;fill-rule:evenodd;"
d="M 147.9136,131.7585
148.1021,131.7600
148.2414,131.7635
148.3423,131.7701
148.4158,131.7809
148.4729,131.7972
148.5243,131.8201
148.5308,131.8235
148.6504,131.9116
148.7181,132.0278
148.7374,132.1780
148.7374,132.1782
148.7156,132.2970
148.6629,132.4054
148.5904,132.4840
148.5441,132.5083
148.4936,132.5342
148.4977,132.5655
148.5579,132.6062
148.5901,132.6223
148.7074,132.7087
148.7826,132.8290
148.8123,132.9709
148.7928,133.1220
148.7581,133.2081
148.6953,133.2992
148.6073,133.3697
148.4875,133.4215
148.3293,133.4567
148.1262,133.4772
147.8717,133.4848
147.8210,133.4850
147.6468,133.4832
147.5261,133.4774
147.4523,133.4670
147.4189,133.4515
147.4162,133.4470
147.4126,133.4079
147.4105,133.3347
147.5529,133.3347
147.9752,133.3347
148.1642,133.3328
148.3027,133.3266
148.4002,133.3152
148.4661,133.2978
148.4857,133.2891
148.5872,133.2057
148.6465,133.0916
148.6594,132.9625
148.6213,132.8347
148.6140,132.8217
148.5610,132.7548
148.4867,132.7059
148.3826,132.6727
148.2401,132.6529
148.0505,132.6442
147.9431,132.6433
147.5529,132.6433
147.5529,132.9890
147.5529,133.3347
147.4105,133.3347
147.4100,133.3169
147.4083,133.1821
147.4076,133.0116
147.4076,132.9890
147.4080,132.8137
147.4095,132.5964
147.4096,132.5828
147.4134,132.1906
147.5529,132.1906
147.5548,132.3177
147.5601,132.4214
147.5677,132.4874
147.5729,132.5030
147.6128,132.5134
147.6982,132.5198
147.8144,132.5225
147.9470,132.5218
148.0815,132.5178
148.2033,132.5106
148.2978,132.5006
148.3367,132.4929
148.4665,132.4318
148.5511,132.3367
148.5853,132.2139
148.5856,132.1875
148.5643,132.0775
148.5041,131.9923
148.4009,131.9299
148.2509,131.8887
148.0499,131.8668
147.8635,131.8619
147.7275,131.8627
147.6384,131.8720
147.5863,131.9005
147.5613,131.9585
147.5534,132.0566
147.5529,132.1906
147.4134,132.1906
147.4176,131.7566
Z" /> 
<path style="fill:#000000; fill-opacity:1.0000; stroke:none;fill-rule:evenodd;"
d="M 135.4154,130.0552
135.6518,130.0761
135.8663,130.1156
136.0773,130.1771
136.3033,130.2642
136.3484,130.2835
136.6295,130.4272
136.9042,130.6089
137.1583,130.8172
137.3775,131.0406
137.5116,131.2130
137.6130,131.3607
137.5255,131.4307
137.4606,131.4766
137.4131,131.4997
137.4079,131.5004
137.3841,131.4944
137.3393,131.4744
137.2664,131.4367
137.1582,131.3776
137.0078,131.2932
136.9420,131.2561
136.8653,131.2127
136.7505,131.1480
136.6118,131.0699
136.4635,130.9864
136.4310,130.9681
136.2549,130.8687
136.0515,130.7535
135.8459,130.6367
135.6630,130.5324
135.6598,130.5306
135.4900,130.4340
135.3636,130.3643
135.2723,130.3182
135.2073,130.2924
135.1603,130.2838
135.1226,130.2890
135.0858,130.3049
135.0783,130.3087
134.8915,130.4091
134.7264,130.5030
134.5897,130.5862
134.4885,130.6543
134.4295,130.7030
134.4170,130.7230
134.4417,130.7493
134.5055,130.7909
134.5724,130.8273
134.6615,130.8688
134.7360,130.8899
134.8203,130.8944
134.9387,130.8862
134.9445,130.8857
135.1815,130.8814
135.4044,130.9111
135.6075,130.9706
135.7851,131.0556
135.9315,131.1621
136.0408,131.2858
136.1073,131.4224
136.1252,131.5679
136.0889,131.7180
136.0880,131.7200
135.9947,131.8709
135.8545,131.9986
135.6645,132.1073
135.5577,132.1544
135.4674,132.1843
135.3723,132.2014
135.2513,132.2101
135.1535,132.2131
134.9707,132.2117
134.8147,132.1993
134.7109,132.1796
134.5151,132.1025
134.3376,131.9930
134.2128,131.8792
134.1683,131.8232
134.1371,131.7655
134.1146,131.6912
134.0964,131.5856
134.0793,131.4465
134.0594,131.4005
134.0046,131.3499
133.9059,131.2876
133.8530,131.2581
133.6346,131.1394
133.2962,131.3352
133.1674,131.4086
133.0564,131.4694
132.9740,131.5120
132.9310,131.5306
132.9285,131.5310
132.8876,131.5135
132.8242,131.4706
132.8095,131.4592
132.7528,131.4092
132.7373,131.3706
132.7561,131.3191
132.7644,131.3029
132.8022,131.2496
132.8732,131.1654
132.9674,131.0616
133.0750,130.9494
133.0843,130.9400
133.3992,130.6557
133.7294,130.4262
134.0830,130.2465
134.4081,130.1292
134.5182,130.0977
134.6150,130.0757
134.7137,130.0615
134.8295,130.0534
134.9775,130.0498
135.1385,130.0491
Z" /> 
<path style="fill:#000000; fill-opacity:1.0000; stroke:none;fill-rule:evenodd;"
d="M 110.1750,80.1800
112.2750,80.1800
112.2750,82.2800
110.1750,82.2800
Z" /> 
</g>
<g style="fill:#000000; fill-opacity:1.0000; stroke:none;">
<circle cx="111.2250" cy="83.7700" r="1.0500" /> 
<path style="fill:#000000; fill-opacity:1.0000; stroke:none;fill-rule:evenodd;"
d="M 126.8500,110.6600
124.7500,110.6600
124.7500,108.5600
126.8500,108.5600
Z" /> 
<circle cx="128.3400" cy="109.6100" r="1.0500" /> 
<circle cx="130.8800" cy="109.6100" r="1.0500" /> 
<circle cx="133.4200" cy="109.6100" r="1.0500" /> 
<circle cx="135.9600" cy="109.6100" r="1.0500" /> 
<circle cx="138.5000" cy="109.6100" r="1.0500" /> 
<circle cx="141.0400" cy="109.6100" r="1.0500" /> 
<circle cx="143.5800" cy="109.6100" r="1.0500" /> 
<circle cx="146.1200" cy="109.6100" r="1.0500" /> 
<circle cx="148.6600" cy="109.6100" r="1.0500" /> 
<circle cx="151.2000" cy="109.6100" r="1.0500" /> 
<circle cx="153.7400" cy="109.6100" r="1.0500" /> 
<circle cx="156.2800" cy="109.6100" r="1.0500" /> 
<circle cx="158.8200" cy="109.6100" r="1.0500" /> 
<circle cx="161.3600" cy="109.6100" r="1.0500" /> 
<circle cx="161.3600" cy="94.3700" r="1.0500" /> 
<circle cx="158.8200" cy="94.3700" r="1.0500" /> 
<circle cx="156.2800" cy="94.3700" r="1.0500" /> 
<circle cx="153.7400" cy="94.3700" r="1.0500" /> 
<circle cx="151.2000" cy="94.3700" r="1.0500" /> 
<circle cx="148.6600" cy="94.3700" r="1.0500" /> 
<circle cx="146.1200" cy="94.3700" r="1.0500" /> 
<circle cx="143.5800" cy="94.3700" r="1.0500" /> 
<circle cx="141.0400" cy="94.3700" r="1.0500" /> 
<circle cx="138.5000" cy="94.3700" r="1.0500" /> 
<circle cx="135.9600" cy="94.3700" r="1.0500" /> 
<circle cx="133.4200" cy="94.3700" r="1.0500" /> 
<circle cx="130.8800" cy="94.3700" r="1.0500" /> 
<circle cx="128.3400" cy="94.3700" r="1.0500" /> 
<circle cx="125.8000" cy="94.3700" r="1.0500" /> 
<circle cx="111.0000" cy="108.3800" r="0.8000" /> 
<circle cx="111.0000" cy="116.0000" r="1.0000" /> 
<path style="fill:#000000; fill-opacity:1.0000; stroke:none;fill-rule:evenodd;"
d="M 172.6750,85.6700
170.8750,85.6700
170.8750,83.8700
172.6750,83.8700
Z" /> 
<circle cx="171.7750" cy="82.2300" r="0.9000" /> 
<circle cx="127.1900" cy="125.0000" r="1.0000" /> 
<circle cx="134.8100" cy="125.0000" r="1.0000" /> 
<path style="fill:#000000; fill-opacity:1.0000; stroke:none;fill-rule:evenodd;"
d="M 171.8250,125.8200
169.7250,125.8200
169.7250,123.7200
171.8250,123.7200
Z" /> 
<circle cx="170.7750" cy="122.2300" r="1.0500" /> 
<circle cx="171.0000" cy="107.1900" r="1.0000" /> 
<circle cx="171.0000" cy="114.8100" r="1.0000" /> 
<path style="fill:#000000; fill-opacity:1.0000; stroke:none;fill-rule:evenodd;"
d="M 153.8200,70.1750
153.8200,72.2750
151.7200,72.2750
151.7200,70.1750
Z" /> 
<circle cx="150.2300" cy="71.2250" r="1.0500" /> 
<circle cx="111.0000" cy="108.3800" r="1.0000" /> 
<circle cx="111.0000" cy="116.0000" r="1.0000" /> 
<circle cx="128.1900" cy="81.0000" r="1.0000" /> 
<circle cx="135.8100" cy="81.0000" r="1.0000" /> 
<path style="fill:#000000; fill-opacity:1.0000; stroke:none;fill-rule:evenodd;"
d="M 123.6800,136.3250
123.6800,134.2250
125.7800,134.2250
125.7800,136.3250
Z" /> 
<circle cx="127.2700" cy="135.2750" r="1.0500" /> 
<circle cx="171.0000" cy="90.1900" r="1.0000" /> 
<circle cx="171.0000" cy="97.8100" r="1.0000" /> 
<path style="fill:#000000; fill-opacity:1.0000; stroke:none;fill-rule:evenodd;"
d="M 110.1750,122.1800
112.2750,122.1800
112.2750,124.2800
110.1750,124.2800
Z" /> 
<circle cx="111.2250" cy="125.7700" r="1.0500" /> 
<circle cx="150.1900" cy="81.0000" r="1.0000" /> 
<circle cx="157.8100" cy="81.0000" r="1.0000" /> 
<path style="fill:#000000; fill-opacity:1.0000; stroke:none;fill-rule:evenodd;"
d="M 131.8200,70.1750
131.8200,72.2750
129.7200,72.2750
129.7200,70.1750
Z" /> 
<circle cx="128.2300" cy="71.2250" r="1.0500" /> 
<path style="fill:#000000; fill-opacity:1.0000; stroke:none;fill-rule:evenodd;"
d="M 153.9100,135.8250
153.9100,133.7250
156.0100,133.7250
156.0100,135.8250
Z" /> 
<circle cx="157.5000" cy="134.7750" r="1.0500" /> 
<circle cx="110.5000" cy="98.0000" r="1.0000" /> 
<circle cx="110.5000" cy="90.3800" r="1.0000" /> 
<circle cx="149.6900" cy="125.0000" r="1.0000" /> 
<circle cx="157.3100" cy="125.0000" r="1.0000" /> 
</g>
<g style="fill:none; 
stroke:#000000; stroke-width:0.8000; stroke-opacity:1; 
stroke-linecap:round; stroke-linejoin:round;">
<path d="M109.0000 128.0000
L109.0000 125.4550
" />
<path d="M174.5000 121.0000
L170.7750 124.7250
" />
<path d="M111.2250 123.2250
L106.0000 118.0000
" />
<path d="M154.9600 135.0400
L149.0000 141.0000
" />
<path d="M111.2250 79.2750
L116.5000 74.0000
" />
<path d="M106.0000 86.4550
L111.2250 81.2300
" />
<path d="M154.9600 134.7750
L154.9600 135.0400
" />
<path d="M116.5000 74.0000
L120.5000 74.0000
" />
<path d="M170.7750 124.7250
L170.7750 124.7700
" />
<path d="M174.4950 120.9950
L174.5000 121.0000
" />
<path d="M171.7750 84.7750
L174.5000 87.5000
" />
<path d="M161.0000 98.5000
L168.5000 98.5000
" />
<path d="M158.0000 138.0000
L154.9600 134.9600
" />
<path d="M118.0000 134.0000
L115.0000 134.0000
" />
<path d="M130.4550 141.0000
L124.7300 135.2750
" />
<path d="M124.7300 135.2750
L124.7250 135.2750
" />
<path d="M120.5000 74.0000
L127.0000 67.5000
" />
<path d="M149.0000 141.0000
L130.4550 141.0000
" />
<path d="M130.7750 71.2250
L134.5000 67.5000
" />
<path d="M149.0450 67.5000
L152.7700 71.2250
" />
<path d="M111.2250 81.2300
L111.2250 79.2750
" />
<path d="M127.0000 67.5000
L130.7250 71.2250
" />
<path d="M115.0000 134.0000
L109.0000 128.0000
" />
<path d="M106.0000 118.0000
L106.0000 86.4550
" />
<path d="M174.4950 87.5050
L174.4950 93.5000
" />
<path d="M171.7750 84.7700
L171.7750 84.7750
" />
<path d="M130.7700 71.2250
L130.7750 71.2250
" />
<path d="M124.7250 135.2750
L122.0000 138.0000
" />
<path d="M134.5000 67.5000
L149.0450 67.5000
" />
<path d="M168.5000 93.5000
L174.4950 93.5000
" />
<path d="M133.4200 101.0800
L133.5000 101.0000
" />
<path d="M164.5000 134.0000
L162.0000 134.0000
" />
<path d="M133.4200 109.6100
L133.4200 101.0800
" />
<path d="M130.7250 71.2250
L130.7700 71.2250
" />
<path d="M154.9600 134.9600
L154.9600 134.7750
" />
<path d="M170.7750 127.7250
L164.5000 134.0000
" />
<path d="M174.4950 93.5000
L174.4950 120.9950
" />
<path d="M109.0000 125.4550
L111.2250 123.2300
" />
<path d="M162.0000 134.0000
L158.0000 138.0000
" />
<path d="M170.7750 124.7700
L170.7750 127.7250
" />
<path d="M133.5000 101.0000
L161.0000 101.0000
" />
<path d="M111.2250 123.2750
L111.2250 123.2300
" />
<path d="M122.0000 138.0000
L118.0000 134.0000
" />
<path d="M168.5000 98.5000
L168.5000 93.5000
" />
<path d="M174.5000 87.5000
L174.4950 87.5050
" />
<path d="M161.0000 101.0000
L161.0000 98.5000
" />
<path d="M111.2250 123.2300
L111.2250 123.2250
" />
<path d="M108.0000 86.9950
L111.2250 83.7700
" />
<path d="M110.5000 98.0000
L108.0000 98.0000
" />
<path d="M108.0000 98.0000
L108.0000 86.9950
" />
<path d="M165.0000 102.0000
L171.0000 102.0000
" />
<path d="M136.0000 105.5000
L164.5000 105.5000
" />
<path d="M135.9600 105.5400
L136.0000 105.5000
" />
<path d="M164.5000 105.5000
L165.0000 105.0000
" />
<path d="M135.9600 109.6100
L135.9600 105.5400
" />
<path d="M171.0000 102.0000
L171.0000 97.8100
" />
<path d="M165.0000 105.0000
L165.0000 102.0000
" />
<path d="M120.0000 112.5000
L120.0000 91.0000
" />
<path d="M138.0000 114.0000
L124.0000 114.0000
" />
<path d="M157.0000 91.0000
L157.8100 90.1900
" />
<path d="M157.8100 90.1900
L157.8100 81.0000
" />
<path d="M124.0000 112.5000
L120.0000 112.5000
" />
<path d="M124.0000 114.0000
L124.0000 112.5000
" />
<path d="M138.5000 113.5000
L138.0000 114.0000
" />
<path d="M120.0000 91.0000
L157.0000 91.0000
" />
<path d="M138.5000 109.6100
L138.5000 113.5000
" />
<path d="M118.5000 87.5000
L135.5000 87.5000
" />
<path d="M121.0000 116.5000
L121.0000 114.0000
" />
<path d="M141.0400 115.9600
L141.0400 109.6100
" />
<path d="M118.0000 88.0000
L118.5000 87.5000
" />
<path d="M121.0000 114.0000
L118.0000 114.0000
" />
<path d="M121.0000 116.5000
L140.5000 116.5000
" />
<path d="M135.8100 87.1900
L135.8100 81.0000
" />
<path d="M135.5000 87.5000
L135.8100 87.1900
" />
<path d="M140.5000 116.5000
L141.0400 115.9600
" />
<path d="M118.0000 114.0000
L118.0000 88.0000
" />
<path d="M115.5000 116.0000
L118.5000 116.0000
" />
<path d="M143.0000 119.0000
L143.5800 118.4200
" />
<path d="M143.5800 118.4200
L143.5800 109.6100
" />
<path d="M118.5000 119.0000
L143.0000 119.0000
" />
<path d="M118.5000 116.0000
L118.5000 119.0000
" />
<path d="M110.5000 90.3800
L115.3800 90.3800
" />
<path d="M115.3800 90.3800
L115.5000 90.5000
" />
<path d="M115.5000 90.5000
L115.5000 116.0000
" />
<path d="M116.5000 121.5000
L145.0000 121.5000
" />
<path d="M113.3800 108.3800
L113.5000 108.5000
" />
<path d="M146.1200 120.3800
L146.1200 109.6100
" />
<path d="M111.0000 108.3800
L113.3800 108.3800
" />
<path d="M145.0000 121.5000
L146.1200 120.3800
" />
<path d="M113.5000 108.5000
L113.5000 118.0000
" />
<path d="M113.5000 118.0000
L116.5000 118.0000
" />
<path d="M116.5000 118.0000
L116.5000 121.5000
" />
<path d="M148.6600 109.6100
L148.6600 120.3400
" />
<path d="M148.6600 120.3400
L144.0000 125.0000
" />
<path d="M144.0000 125.0000
L134.8100 125.0000
" />
<path d="M149.6900 125.0000
L151.2000 123.4900
" />
<path d="M151.2000 123.4900
L151.2000 109.6100
" />
<path d="M154.0000 120.0000
L167.0000 120.0000
" />
<path d="M168.5000 118.5000
L168.5000 107.5000
" />
<path d="M167.0000 120.0000
L168.5000 118.5000
" />
<path d="M153.7400 109.6100
L153.7400 119.7400
" />
<path d="M168.8100 107.1900
L171.0000 107.1900
" />
<path d="M153.7400 119.7400
L154.0000 120.0000
" />
<path d="M168.5000 107.5000
L168.8100 107.1900
" />
<path d="M114.5000 120.0000
L114.5000 125.5000
" />
<path d="M114.5000 125.5000
L114.2300 125.7700
" />
<path d="M114.5000 120.0000
L111.0000 120.0000
" />
<path d="M111.0000 120.0000
L111.0000 116.0000
" />
<path d="M114.2300 125.7700
L111.2250 125.7700
" />
<path d="M167.1900 90.1900
L167.0000 90.0000
" />
<path d="M167.7700 82.2300
L171.7750 82.2300
" />
<path d="M167.0000 83.0000
L167.7700 82.2300
" />
<path d="M171.0000 90.1900
L167.1900 90.1900
" />
<path d="M167.0000 90.0000
L167.0000 83.0000
" />
</g>
<g style="fill:none; 
stroke:#000000; stroke-width:0.2000; stroke-opacity:1; 
stroke-linecap:round; stroke-linejoin:round;">
<path d="M127.1900 135.1950
L127.2700 135.2750
" />
</g>
<g style="fill:none; 
stroke:#000000; stroke-width:0.8000; stroke-opacity:1; 
stroke-linecap:round; stroke-linejoin:round;">
<path d="M127.1900 125.0000
L127.1900 135.1950
" />
<path d="M167.7300 122.2300
L170.7750 122.2300
" />
<path d="M171.0000 114.8100
L171.0000 118.5000
" />
<path d="M167.5000 122.0000
L167.7300 122.2300
" />
<path d="M171.0000 118.5000
L167.5000 122.0000
" />
</g>
<g style="fill:none; 
stroke:#000000; stroke-width:0.2000; stroke-opacity:1; 
stroke-linecap:round; stroke-linejoin:round;">
<path d="M150.1900 71.2650
L150.2300 71.2250
" />
</g>
<g style="fill:none; 
stroke:#000000; stroke-width:0.8000; stroke-opacity:1; 
stroke-linecap:round; stroke-linejoin:round;">
<path d="M150.1900 81.0000
L150.1900 71.2650
" />
</g>
<g style="fill:none; 
stroke:#000000; stroke-width:0.2000; stroke-opacity:1; 
stroke-linecap:round; stroke-linejoin:round;">
<path d="M128.2300 80.9600
L128.1900 81.0000
" />
</g>
<g style="fill:none; 
stroke:#000000; stroke-width:0.8000; stroke-opacity:1; 
stroke-linecap:round; stroke-linejoin:round;">
<path d="M128.2300 71.2250
L128.2300 80.9600
" />
</g>
<g style="fill:none; 
stroke:#000000; stroke-width:0.2000; stroke-opacity:1; 
stroke-linecap:round; stroke-linejoin:round;">
<path d="M157.3100 134.7350
L157.2700 134.7750
" />
</g>
<g style="fill:none; 
stroke:#000000; stroke-width:0.8000; stroke-opacity:1; 
stroke-linecap:round; stroke-linejoin:round;">
<path d="M157.3100 124.5000
L157.3100 134.7350
" />
</g> 
</svg>
