<?xml version="1.0" standalone="no"?>
 <!DOCTYPE svg PUBLIC "-//W3C//DTD SVG 1.1//EN" 
 "http://www.w3.org/Graphics/SVG/1.1/DTD/svg11.dtd"> 
<svg
  xmlns:svg="http://www.w3.org/2000/svg"
  xmlns="http://www.w3.org/2000/svg"
  xmlns:xlink="http://www.w3.org/1999/xlink"
  xmlns:inkscape="http://www.inkscape.org/namespaces/inkscape"
  version="1.1"
  width="297.0022mm" height="210.0072mm" viewBox="0.0000 0.0000 297.0022 210.0072">
<title>SVG Image created as PROYECTOFINAL-F_Cu.svg date 2026-07-02T10:05:28 </title>
  <desc>Image generated by PCBNEW </desc>
<g style="fill:#000000; fill-opacity:1.0000;stroke:#000000; stroke-opacity:1.0000;
stroke-linecap:round; stroke-linejoin:round;"
 transform="translate(0 0) scale(1 1)">
</g>
<g style="fill:none; 
stroke:#000000; stroke-width:0.8000; stroke-opacity:1; 
stroke-linecap:round; stroke-linejoin:round;">
<path d="M179.0000 133.6750
L179.0000 135.6750
" />
<path d="M175.5000 133.6750
L179.0000 133.6750
" />
<path d="M178.7500 130.7500
L182.2500 130.7500
" />
<path d="M182.0000 133.7125
L185.5000 133.7125
" />
<path d="M184.7500 136.5000
L179.0000 136.5000
" />
<path d="M179.0000 135.7500
L179.0000 136.5000
" />
<path d="M175.5000 130.5000
L175.5000 128.2500
" />
<path d="M182.3000 128.2500
L175.5000 128.2500
" />
<path d="M168.7500 130.2500
L168.7500 134.7500
" />
<path d="M167.2500 130.2500
L168.7500 130.2500
" />
<path d="M166.0000 134.7500
L166.0000 130.2500
" />
<path d="M163.2500 134.7500
L163.2500 130.5000
" />
<path d="M160.7500 130.2500
L160.7500 134.7500
" />
<path d="M167.2500 130.2500
L160.7500 130.2500
" />
<path d="M150.6900 109.0000
L150.6900 106.7500
" />
<path d="M153.2500 108.5000
L153.2500 107.0000
" />
<path d="M155.7500 108.5000
L155.7500 107.0000
" />
<path d="M158.5000 108.5000
L158.5000 107.0000
" />
<path d="M160.0000 121.2500
L150.0000 121.2500
" />
<path d="M160.1250 126.5000
L149.8750 126.5000
" />
<path d="M160.2500 111.2500
L150.0000 111.2500
" />
<path d="M160.2500 113.7500
L150.0000 113.7500
" />
<path d="M160.2500 116.2500
L149.7500 116.2500
" />
<path d="M160.2500 119.0000
L150.0000 119.0000
" />
<path d="M160.2500 124.0000
L150.0000 124.0000
" />
<path d="M167.2500 109.0000
L150.6900 109.0000
" />
<path d="M167.2500 113.7500
L167.2500 109.0000
" />
<path d="M167.2500 130.2500
L167.2500 113.7500
" />
<path d="M175.5000 111.2500
L185.0000 111.2500
" />
<path d="M175.5000 113.7500
L167.2500 113.7500
" />
<path d="M180.0000 106.7500
L180.0000 111.2500
" />
<path d="M181.2500 122.7500
L185.0000 122.7500
" />
<path d="M182.5000 106.7500
L182.5000 111.2500
" />
<path d="M185.0000 117.7500
L181.0000 117.7500
" />
<path d="M185.0000 120.2500
L181.2500 120.2500
" />
<path style="fill:#000000; fill-opacity:1.0000; stroke:none;fill-rule:evenodd;"
d="M 179.3056,132.7125
179.3882,132.7202
179.5132,132.7640
179.6198,132.8427
179.6985,132.9493
179.7423,133.0743
179.7500,133.1569
179.7500,134.2681
179.7423,134.3507
179.6985,134.4757
179.6198,134.5823
179.5132,134.6610
179.3882,134.7048
179.3056,134.7125
178.1944,134.7125
178.1118,134.7048
177.9868,134.6610
177.8802,134.5823
177.8015,134.4757
177.7577,134.3507
177.7500,134.2681
177.7500,133.1569
177.7577,133.0743
177.8015,132.9493
177.8802,132.8427
177.9868,132.7640
178.1118,132.7202
178.1944,132.7125
Z" /> 
<path style="fill:#000000; fill-opacity:1.0000; stroke:none;fill-rule:evenodd;"
d="M 179.3056,129.7875
179.3882,129.7952
179.5132,129.8390
179.6198,129.9177
179.6985,130.0243
179.7423,130.1493
179.7500,130.2319
179.7500,131.3431
179.7423,131.4257
179.6985,131.5507
179.6198,131.6573
179.5132,131.7360
179.3882,131.7798
179.3056,131.7875
178.1944,131.7875
178.1118,131.7798
177.9868,131.7360
177.8802,131.6573
177.8015,131.5507
177.7577,131.4257
177.7500,131.3431
177.7500,130.2319
177.7577,130.1493
177.8015,130.0243
177.8802,129.9177
177.9868,129.8390
178.1118,129.7952
178.1944,129.7875
Z" /> 
<path style="fill:#000000; fill-opacity:1.0000; stroke:none;fill-rule:evenodd;"
d="M 182.5556,129.7875
182.6382,129.7952
182.7632,129.8390
182.8698,129.9177
182.9485,130.0243
182.9923,130.1493
183.0000,130.2319
183.0000,131.3431
182.9923,131.4257
182.9485,131.5507
182.8698,131.6573
182.7632,131.7360
182.6382,131.7798
182.5556,131.7875
181.4444,131.7875
181.3618,131.7798
181.2368,131.7360
181.1302,131.6573
181.0515,131.5507
181.0077,131.4257
181.0000,131.3431
181.0000,130.2319
181.0077,130.1493
181.0515,130.0243
181.1302,129.9177
181.2368,129.8390
181.3618,129.7952
181.4444,129.7875
Z" /> 
<path style="fill:#000000; fill-opacity:1.0000; stroke:none;fill-rule:evenodd;"
d="M 182.5556,132.7125
182.6382,132.7202
182.7632,132.7640
182.8698,132.8427
182.9485,132.9493
182.9923,133.0743
183.0000,133.1569
183.0000,134.2681
182.9923,134.3507
182.9485,134.4757
182.8698,134.5823
182.7632,134.6610
182.6382,134.7048
182.5556,134.7125
181.4444,134.7125
181.3618,134.7048
181.2368,134.6610
181.1302,134.5823
181.0515,134.4757
181.0077,134.3507
181.0000,134.2681
181.0000,133.1569
181.0077,133.0743
181.0515,132.9493
181.1302,132.8427
181.2368,132.7640
181.3618,132.7202
181.4444,132.7125
Z" /> 
<path style="fill:#000000; fill-opacity:1.0000; stroke:none;fill-rule:evenodd;"
d="M 176.0556,129.7500
176.1382,129.7577
176.2632,129.8015
176.3698,129.8802
176.4485,129.9868
176.4923,130.1118
176.5000,130.1944
176.5000,131.3056
176.4923,131.3882
176.4485,131.5132
176.3698,131.6198
176.2632,131.6985
176.1382,131.7423
176.0556,131.7500
174.9444,131.7500
174.8618,131.7423
174.7368,131.6985
174.6302,131.6198
174.5515,131.5132
174.5077,131.3882
174.5000,131.3056
174.5000,130.1944
174.5077,130.1118
174.5515,129.9868
174.6302,129.8802
174.7368,129.8015
174.8618,129.7577
174.9444,129.7500
Z" /> 
<path style="fill:#000000; fill-opacity:1.0000; stroke:none;fill-rule:evenodd;"
d="M 176.0556,132.6750
176.1382,132.6827
176.2632,132.7265
176.3698,132.8052
176.4485,132.9118
176.4923,133.0368
176.5000,133.1194
176.5000,134.2306
176.4923,134.3132
176.4485,134.4382
176.3698,134.5448
176.2632,134.6235
176.1382,134.6673
176.0556,134.6750
174.9444,134.6750
174.8618,134.6673
174.7368,134.6235
174.6302,134.5448
174.5515,134.4382
174.5077,134.3132
174.5000,134.2306
174.5000,133.1194
174.5077,133.0368
174.5515,132.9118
174.6302,132.8052
174.7368,132.7265
174.8618,132.6827
174.9444,132.6750
Z" /> 
</g>
<g style="fill:#000000; fill-opacity:1.0000; stroke:none;">
<circle cx="150.0000" cy="111.2500" r="1.0000" /> 
<circle cx="149.8750" cy="126.5000" r="1.0000" /> 
<path style="fill:#000000; fill-opacity:1.0000; stroke:none;fill-rule:evenodd;"
d="M 184.0000,116.2100
184.0000,114.2100
186.0000,114.2100
186.0000,116.2100
Z" /> 
<circle cx="185.0000" cy="117.7500" r="1.0000" /> 
<circle cx="185.0000" cy="120.2900" r="1.0000" /> 
<circle cx="185.0000" cy="122.8300" r="1.0000" /> 
<path style="fill:#000000; fill-opacity:1.0000; stroke:none;fill-rule:evenodd;"
d="M 161.8800,135.7500
159.8800,135.7500
159.8800,133.7500
161.8800,133.7500
Z" /> 
<circle cx="163.4200" cy="134.7500" r="1.0000" /> 
<circle cx="165.9600" cy="134.7500" r="1.0000" /> 
<circle cx="168.5000" cy="134.7500" r="1.0000" /> 
<path style="fill:#000000; fill-opacity:1.0000; stroke:none;fill-rule:evenodd;"
d="M 148.7500,117.2500
148.7500,115.2500
150.7500,115.2500
150.7500,117.2500
Z" /> 
<circle cx="149.7500" cy="118.7900" r="1.0000" /> 
<circle cx="149.7500" cy="121.3300" r="1.0000" /> 
<circle cx="149.7500" cy="123.8700" r="1.0000" /> 
<circle cx="150.0000" cy="113.7500" r="1.0000" /> 
<path style="fill:#000000; fill-opacity:1.0000; stroke:none;fill-rule:evenodd;"
d="M 151.6900,107.7500
149.6900,107.7500
149.6900,105.7500
151.6900,105.7500
Z" /> 
<circle cx="153.2300" cy="106.7500" r="1.0000" /> 
<circle cx="155.7700" cy="106.7500" r="1.0000" /> 
<circle cx="158.3100" cy="106.7500" r="1.0000" /> 
<path style="fill:#000000; fill-opacity:1.0000; stroke:none;fill-rule:evenodd;"
d="M 178.4200,107.7500
176.4200,107.7500
176.4200,105.7500
178.4200,105.7500
Z" /> 
<circle cx="179.9600" cy="106.7500" r="1.0000" /> 
<circle cx="182.5000" cy="106.7500" r="1.0000" /> 
<circle cx="185.0400" cy="106.7500" r="1.0000" /> 
<path style="fill:#000000; fill-opacity:1.0000; stroke:none;fill-rule:evenodd;"
d="M 184.0000,129.7100
184.0000,127.7100
186.0000,127.7100
186.0000,129.7100
Z" /> 
<circle cx="185.0000" cy="131.2500" r="1.0000" /> 
<circle cx="185.0000" cy="133.7900" r="1.0000" /> 
<circle cx="185.0000" cy="136.3300" r="1.0000" /> 
</g>
<g style="fill:none; 
stroke:#000000; stroke-width:0.8000; stroke-opacity:1; 
stroke-linecap:round; stroke-linejoin:round;">
<path d="M181.0600 114.9400
L181.1200 115.0000
" />
<path d="M185.0400 106.7500
L185.0400 110.9600
" />
<path d="M181.0200 120.0200
L181.0000 120.0000
" />
<path d="M175.3700 116.2735
L180.9765 116.2735
" />
<path d="M181.1200 115.0000
L185.0000 115.0000
" />
<path d="M181.0000 116.2500
L181.0000 117.5000
" />
<path d="M181.0000 115.0000
L181.0000 116.2500
" />
<path d="M181.0600 114.9400
L181.0000 115.0000
" />
<path d="M177.4200 106.7500
L177.4200 111.1700
" />
<path d="M180.9765 116.2735
L181.0000 116.2500
" />
</g>
<g style="fill:none; 
stroke:#000000; stroke-width:0.2000; stroke-opacity:1; 
stroke-linecap:round; stroke-linejoin:round;">
<path d="M184.2500 133.5000
L184.2500 133.5200
" />
</g>
<g style="fill:none; 
stroke:#000000; stroke-width:0.8000; stroke-opacity:1; 
stroke-linecap:round; stroke-linejoin:round;">
<path d="M181.0000 122.5000
L181.0600 122.5600
" />
<path d="M181.0200 117.4800
L181.0000 117.5000
" />
<path d="M181.0000 117.7500
L181.0000 120.0000
" />
<path d="M181.0000 120.0000
L181.0000 122.5000
" />
<path d="M181.0000 117.5000
L181.0000 117.7500
" />
<path d="M182.0500 128.2500
L184.2500 128.2500
" />
</g>
<g style="fill:#000000; fill-opacity:1.0000; stroke:none;">
<circle cx="150.0000" cy="111.2500" r="1.0000" /> 
<circle cx="149.8750" cy="126.5000" r="1.0000" /> 
<path style="fill:#000000; fill-opacity:1.0000; stroke:none;fill-rule:evenodd;"
d="M 184.0000,116.2100
184.0000,114.2100
186.0000,114.2100
186.0000,116.2100
Z" /> 
<circle cx="185.0000" cy="117.7500" r="1.0000" /> 
<circle cx="185.0000" cy="120.2900" r="1.0000" /> 
<circle cx="185.0000" cy="122.8300" r="1.0000" /> 
<path style="fill:#000000; fill-opacity:1.0000; stroke:none;fill-rule:evenodd;"
d="M 161.8800,135.7500
159.8800,135.7500
159.8800,133.7500
161.8800,133.7500
Z" /> 
<circle cx="163.4200" cy="134.7500" r="1.0000" /> 
<circle cx="165.9600" cy="134.7500" r="1.0000" /> 
<circle cx="168.5000" cy="134.7500" r="1.0000" /> 
<path style="fill:#000000; fill-opacity:1.0000; stroke:none;fill-rule:evenodd;"
d="M 148.7500,117.2500
148.7500,115.2500
150.7500,115.2500
150.7500,117.2500
Z" /> 
<circle cx="149.7500" cy="118.7900" r="1.0000" /> 
<circle cx="149.7500" cy="121.3300" r="1.0000" /> 
<circle cx="149.7500" cy="123.8700" r="1.0000" /> 
<circle cx="150.0000" cy="113.7500" r="1.0000" /> 
<path style="fill:#000000; fill-opacity:1.0000; stroke:none;fill-rule:evenodd;"
d="M 151.6900,107.7500
149.6900,107.7500
149.6900,105.7500
151.6900,105.7500
Z" /> 
<circle cx="153.2300" cy="106.7500" r="1.0000" /> 
<circle cx="155.7700" cy="106.7500" r="1.0000" /> 
<circle cx="158.3100" cy="106.7500" r="1.0000" /> 
<path style="fill:#000000; fill-opacity:1.0000; stroke:none;fill-rule:evenodd;"
d="M 178.4200,107.7500
176.4200,107.7500
176.4200,105.7500
178.4200,105.7500
Z" /> 
<circle cx="179.9600" cy="106.7500" r="1.0000" /> 
<circle cx="182.5000" cy="106.7500" r="1.0000" /> 
<circle cx="185.0400" cy="106.7500" r="1.0000" /> 
<path style="fill:#000000; fill-opacity:1.0000; stroke:none;fill-rule:evenodd;"
d="M 184.0000,129.7100
184.0000,127.7100
186.0000,127.7100
186.0000,129.7100
Z" /> 
<circle cx="185.0000" cy="131.2500" r="1.0000" /> 
<circle cx="185.0000" cy="133.7900" r="1.0000" /> 
<circle cx="185.0000" cy="136.3300" r="1.0000" /> 
<path style="fill:none; 
stroke:#000000; stroke-width:0.2000; stroke-opacity:1; 
stroke-linecap:round; stroke-linejoin:round;fill:none"
d="M 147.2500,104.2500
187.2500,104.2500
187.2500,138.2500
147.2500,138.2500
Z" /> 
</g> 
</svg>
